<?xml version="1.0" encoding="utf-8" ?>
<svg baseProfile="full" height="200mm" version="1.1" viewBox="0,0,200,200" width="200mm" xmlns="http://www.w3.org/2000/svg" xmlns:ev="http://www.w3.org/2001/xml-events" xmlns:xlink="http://www.w3.org/1999/xlink"><defs /><rect fill="#1a1a1a" height="200" width="200" x="0" y="0" /><rect fill="#1a1a1a" height="200" width="180" x="10" y="0" /><text alignment-baseline="middle" fill="#e1ed5e" style="dominant-baseline: central; font-size:9.0px; font-family:Arial;" text-anchor="middle" x="100.0" y="100.0">2023</text><line stroke="#e1ed5e" stroke-width="0.3" x1="100.0" x2="100.0" y1="15.0" y2="10.0" /><path d="M 100.0 14.0 a86.0,86.0 0 0,1 42.46469731375804,11.215312516191453" fill="none" id="id1" stroke="none" /><text fill="#e1ed5e" style="font-size:6.75px; font-family:Arial;" text-anchor="middle"><textPath startOffset="22.20632615414155" xlink:href="#id1">January</textPath></text><line stroke="#e1ed5e" stroke-width="0.3" x1="143.23703022742887" x2="145.7803849466894" y1="26.81831364943548" y2="22.513508569990506" /><path d="M 143.74570117128098 25.957352633546492 a86.0,86.0 0 0,1 28.547481713284135,27.462654790039103" fill="none" id="id2" stroke="none" /><text fill="#e1ed5e" style="font-size:6.75px; font-family:Arial;" text-anchor="middle"><textPath startOffset="19.985693538727396" xlink:href="#id2">February</textPath></text><line stroke="#e1ed5e" stroke-width="0.3" x1="172.23445277983987" x2="176.4835382374775" y1="55.19839476539836" y2="52.563006222186495" /><path d="M 173.08426987136738 54.67131705675599 a86.0,86.0 0 0,1 12.851231095245387,41.99856678651699" fill="none" id="id3" stroke="none" /><text fill="#e1ed5e" style="font-size:6.75px; font-family:Arial;" text-anchor="middle"><textPath startOffset="22.20632615414155" xlink:href="#id3">March</textPath></text><line stroke="#e1ed5e" stroke-width="0.3" x1="184.98032266829074" x2="189.97916517819016" y1="98.17113171792111" y2="98.06355123074" /><path d="M 185.9800911702706 98.14961562048488 a86.0,86.0 0 0,1 -9.607161424134198,41.387399972396054" fill="none" id="id4" stroke="none" /><text fill="#e1ed5e" style="font-size:6.75px; font-family:Arial;" text-anchor="middle"><textPath startOffset="21.466115282336823" xlink:href="#id4">April</textPath></text><line stroke="#e1ed5e" stroke-width="0.3" x1="174.80103733775053" x2="179.2010983576182" y1="140.37084112569926" y2="142.7455964860345" /><path d="M 175.68104954172406 140.8457921977663 a86.0,86.0 0 0,1 -30.038265399797805,32.042727171017184" fill="none" id="id5" stroke="none" /><text fill="#e1ed5e" style="font-size:6.75px; font-family:Arial;" text-anchor="middle"><textPath startOffset="22.206326154141568" xlink:href="#id5">May</textPath></text><line stroke="#e1ed5e" stroke-width="0.3" x1="143.8653032363475" x2="146.44561519142675" y1="172.8068346515853" y2="177.08958963109032" /><path d="M 144.38136562736335 173.6633856474863 a86.0,86.0 0 0,1 -40.68145358897372,12.25698825130547" fill="none" id="id6" stroke="none" /><text fill="#e1ed5e" style="font-size:6.75px; font-family:Arial;" text-anchor="middle"><textPath startOffset="21.466115282336833" xlink:href="#id6">June</textPath></text><line stroke="#e1ed5e" stroke-width="0.3" x1="102.19456741930631" x2="102.32365962044197" y1="184.97166512339345" y2="189.96999836594603" /><path d="M 102.22038585953345 185.97133177190398 a86.0,86.0 0 0,1 -42.740103519485714,-10.115201625700543" fill="none" id="id7" stroke="none" /><text fill="#e1ed5e" style="font-size:6.75px; font-family:Arial;" text-anchor="middle"><textPath startOffset="22.20632615414155" xlink:href="#id7">July</textPath></text><line stroke="#e1ed5e" stroke-width="0.3" x1="58.666819895761336" x2="56.23545636021788" y1="174.27360380694188" y2="178.64263932499728" /><path d="M 58.180547188652646 175.14741091055294 a86.0,86.0 0 0,1 -31.652253787137756,-30.449443065178592" fill="none" id="id8" stroke="none" /><text fill="#e1ed5e" style="font-size:6.75px; font-family:Arial;" text-anchor="middle"><textPath startOffset="22.20632615414155" xlink:href="#id8">August</textPath></text><line stroke="#e1ed5e" stroke-width="0.3" x1="26.63291911575756" x2="22.317208475507996" y1="142.92168965132927" y2="145.44649492493687" /><path d="M 25.769776987707644 143.4266507060508 a86.0,86.0 0 0,1 -11.730757126820373,-40.83630448921669" fill="none" id="id9" stroke="none" /><text fill="#e1ed5e" style="font-size:6.75px; font-family:Arial;" text-anchor="middle"><textPath startOffset="21.46611528233685" xlink:href="#id9">September</textPath></text><line stroke="#e1ed5e" stroke-width="0.3" x1="15.007084014347285" x2="10.007500721073583" y1="101.09737516637583" y2="101.16192664675087" /><path d="M 14.007167355692545 101.11028546245083 a86.0,86.0 0 0,1 10.666146001902534,-42.60595125391555" fill="none" id="id10" stroke="none" /><text fill="#e1ed5e" style="font-size:6.75px; font-family:Arial;" text-anchor="middle"><textPath startOffset="22.20632615414155" xlink:href="#id10">October</textPath></text><path d="M 79.54389044137918 95.25157060432595 l -29.673525328427395 -6.888046797901627 a51.46248995251217,51.46248995251217 0 0,0 0.20773005547049583,-0.8611751897567945 l 29.550562472696086 7.3978072193178175" fill="red" stroke="none" /><path d="M 79.71946130924805 94.55025226153421 l -26.27707374907163 -7.061125220643348 a48.2092648595245,48.2092648595245 0 0,0 0.22225212474629655,-0.7995591438597507 l 26.151634853758974 7.512395667922041" fill="red" stroke="none" /><path d="M 80.14247586403 93.16781622104843 l -8.131525758982317 -2.797734400735857 a29.59936212437026,29.59936212437026 0 0,0 0.16991009114703073,-0.48035870801160246 l 8.082162587025477 2.9372907351740705" fill="red" stroke="none" /><path d="M 80.2630227832202 92.82701384747504 l -5.826863775243216 -2.1176501707128246 a27.19974061560334,27.19974061560334 0 0,0 0.1637105908456275,-0.43866299168134043 l 5.789548595895961 2.217636299423506" fill="red" stroke="none" /><path d="M 80.52162464483688 92.15188598940014 l -25.28057372112974 -10.18590211961439 a48.2554583461706,48.2554583461706 0 0,0 0.31705746386370826,-0.7677797975184094 l 25.10149457037983 10.619556487586111" fill="red" stroke="none" /><path d="M 81.43458229118936 90.18545643968196 l -7.6212060488911835 -4.028924095443567 a29.620615465644047,29.620615465644047 0 0,0 0.24217237007691222,-0.4487086221436969 l 7.550725579595799 4.159513700919737" fill="red" stroke="none" /><line stroke="#e1ed5e" stroke-width="0.3" x1="26.266209847984243" x2="21.928928074336255" y1="57.711370442889674" y2="55.22380399835377" /><path d="M 25.398753493254645 57.213857153982495 a86.0,86.0 0 0,1 29.58750427330803,-30.492523968695096" fill="none" id="id11" stroke="none" /><text fill="#e1ed5e" style="font-size:6.75px; font-family:Arial;" text-anchor="middle"><textPath startOffset="21.46611528233685" xlink:href="#id11">November</textPath></text><path d="M 82.34701348167596 88.62581576622439 l -52.95895955497213 -34.12255270132681 a84.0,84.0 0 0,0 0.793613458568319,-1.208727744089332 l 52.36374946104589 35.02909850939381" fill="red" stroke="none" /><path d="M 82.54541684631803 88.32363383020206 l -11.530072387828504 -7.713123022142331 a34.87208838002654,34.87208838002654 0 0,0 0.33805257262908633,-0.4960504368366806 l 11.395595349530677 7.910451482249427" fill="red" stroke="none" /><path d="M 83.39014120810768 87.1503855733568 l -9.205277736855171 -7.121329030592913 a32.638318837985445,32.638318837985445 0 0,0 0.3475917535423033,-0.44140622850349487 l 9.081331902718897 7.278727653049456" fill="red" stroke="none" /><path d="M 84.80347519578584 85.50635884689758 l -19.973486440527353 -19.04965436341617 a48.60125888352832,48.60125888352832 0 0,0 0.5826035090476361,-0.6004241283678509 l 19.6426186677766 19.390642687334143" fill="red" stroke="none" /><path d="M 85.83668400450813 84.49514656593479 l -9.47997602840818 -10.377911424535432 a35.05599484329362,35.05599484329362 0 0,0 0.4490322586542033,-0.40314559539211714 l 9.299932782158006 10.539556028696827" fill="red" stroke="none" /><path d="M 86.93701828274178 83.55741782278169 l -6.745189710645207 -8.490277221446622 a31.843541466218927,31.843541466218927 0 0,0 0.43211298315729924,-0.33727103741683545 l 6.598044172328481 8.605126648086678" fill="red" stroke="none" /><path d="M 87.51073957382395 83.11751280151077 l -3.9578455993738784 -5.350058801318858 a27.65489826864788,27.65489826864788 0 0,0 0.3851335487821793,-0.2798159021518814 l 3.8651667342379175 5.4173939382874075" fill="red" stroke="none" /><path d="M 87.80319425747018 82.90503203632743 l -23.666210853077764 -33.170415672371696 a61.74758903322082,61.74758903322082 0 0,0 0.8705494437391507,-0.6098755184891881 l 23.091730269754954 33.57287603362482" fill="red" stroke="none" /><path d="M 88.70189139769569 82.29822771554957 l -15.646119846020351 -24.514196172002137 a50.08172759991119,50.08172759991119 0 0,0 0.7306705787011076,-0.4575458493507879 l 15.221830114947002 24.779886362675857" fill="red" stroke="none" /><line stroke="#e1ed5e" stroke-width="0.3" x1="56.762969772571076" x2="54.21961505331055" y1="26.818313649435495" y2="22.513508569990535" /><path d="M 56.25429882871897 25.957352633546506 a86.0,86.0 0 0,1 42.265352541879196,-11.944610805530505" fill="none" id="id12" stroke="none" /><text fill="#e1ed5e" style="font-size:6.75px; font-family:Arial;" text-anchor="middle"><textPath startOffset="22.20632615414155" xlink:href="#id12">December</textPath></text><path d="M 89.94658935756843 81.56283822128135 l -6.412107532721638 -11.759299219745762 a34.39388820136628,34.39388820136628 0 0,0 0.5222219820074911,-0.2789528970958647 l 6.208740504185842 11.867930843343375" fill="red" stroke="none" /><path d="M 91.90106846888425 80.62456947434976 l -15.467804864862543 -37.00431067876569 a61.10700682110394,61.10700682110394 0 0,0 0.9739762316283975,-0.3973093599679833 l 14.828544763645764 37.26508092491725" fill="red" stroke="none" /></svg>