<?xml version="1.0" encoding="utf-8" ?>
<svg baseProfile="full" height="200mm" version="1.1" viewBox="0,0,200,200" width="200mm" xmlns="http://www.w3.org/2000/svg" xmlns:ev="http://www.w3.org/2001/xml-events" xmlns:xlink="http://www.w3.org/1999/xlink"><defs /><rect fill="#1a1a1a" height="200" width="200" x="0" y="0" /><rect fill="#1a1a1a" height="200" width="180" x="10" y="0" /><text alignment-baseline="middle" fill="#e1ed5e" style="dominant-baseline: central; font-size:9.0px; font-family:Arial;" text-anchor="middle" x="100.0" y="100.0">2024</text><line stroke="#e1ed5e" stroke-width="0.3" x1="100.0" x2="100.0" y1="15.0" y2="10.0" /><path d="M 100.0 14.0 a86.0,86.0 0 0,1 42.35913384403234,11.155469271406648" fill="none" id="id13" stroke="none" /><text fill="#e1ed5e" style="font-size:6.75px; font-family:Arial;" text-anchor="middle"><textPath startOffset="22.145653131862478" xlink:href="#id13">January</textPath></text><path d="M 102.87502721639298 79.19773525538626 l 0.7043226241438038 -5.096127650381799 a26.14456872710111,26.14456872710111 0 0,0 0.44405291855578516,0.06526048722563067 l -0.7917006483072709 5.083286089857286" fill="#ff2f04" stroke="none" /><path d="M 107.06938296918511 80.22567764915836 l 4.520661928067554 -12.645095985666966 a34.42888069626841,34.42888069626841 0 0,0 0.554814605905863,0.20373560827167994 l -4.737065685627542 12.565629528386564" fill="#ffa20e" stroke="none" /><path d="M 109.3889696526874 81.21577127319529 l 5.5382010835560465 -11.08011206094141 a33.38711243692091,33.38711243692091 0 0,0 0.5104615690039677,0.2606453143161055 l -5.727589874273592 10.983408794952469" fill="#ff940d" stroke="none" /><line stroke="#e1ed5e" stroke-width="0.3" x1="143.13028292997686" x2="145.6673583964461" y1="26.7553504044142" y2="22.446841604673864" /><path d="M 143.63769802327073 25.89364864446614 a86.0,86.0 0 0,1 29.32050498858742,28.57503671076993" fill="none" id="id14" stroke="none" /><text fill="#e1ed5e" style="font-size:6.75px; font-family:Arial;" text-anchor="middle"><textPath startOffset="20.669276256404974" xlink:href="#id14">February</textPath></text><path d="M 111.27062007382361 82.28071324371311 l 1.6926493340179947 -2.661125894657878 a24.153831446854802,24.153831446854802 0 0,0 0.3479467166055283,0.22553485793073416 l -1.7380816828805303 2.6316771950232494" fill="#ff1202" stroke="none" /><path d="M 111.5731344415666 82.4767994020092 l 12.402441808699269 -18.778877651172092 a43.5048174543999,43.5048174543999 0 0,0 0.6196405898225423,0.41692184251350123 l -12.722978686618813 18.563206134601472" fill="#e9ff1a" stroke="none" /><path d="M 113.59037401385872 83.9905735841838 l 9.965621679584402 -11.739477280351144 a36.39899159933803,36.39899159933803 0 0,0 0.47287580115422295,0.4084588544167321 l -10.165676960501484 11.566674293469692" fill="#ffbc11" stroke="none" /><path d="M 114.39649973595853 84.71141617570332 l 10.55428727937794 -11.208287343168859 a36.395411171601694,36.395411171601694 0 0,0 0.45117747220061516,0.43221781232086837 l -10.745137237443867 11.025457400542411" fill="#ffbc11" stroke="none" /><path d="M 115.8921839302757 86.27271002978787 l 8.21800050628457 -7.098513106823903 a31.859301112366495,31.859301112366495 0 0,0 0.35394991201804815,0.41695210636286906 l -8.33864498180973 6.956394218011482" fill="#ff7f0b" stroke="none" /><path d="M 116.7966241395341 87.39550010848427 l 2.6208445004399192 -1.9667305731823594 a24.276714061827242,24.276714061827242 0 0,0 0.24727333852218025,0.3354737739250404 l -2.6542198585459253 1.9214504899884441" fill="#ff1402" stroke="none" /><path d="M 117.62189284568427 88.57770195909679 l 12.815330774438898 -8.30674257755743 a36.27202262662304,36.27202262662304 0 0,0 0.3341902222474751,0.525402536893549 l -12.956038688312264 8.085526365985208" fill="#ffba11" stroke="none" /><line stroke="#e1ed5e" stroke-width="0.3" x1="172.87174338648825" x2="177.1583165268699" y1="56.24261187166439" y2="53.66864786411523" /><path d="M 173.72905801456457 55.72781907015455 a86.0,86.0 0 0,1 12.242430191666344,42.057860355516425" fill="none" id="id15" stroke="none" /><text fill="#e1ed5e" style="font-size:6.75px; font-family:Arial;" text-anchor="middle"><textPath startOffset="22.145653131862474" xlink:href="#id15">March</textPath></text><path d="M 118.36410011445183 89.81374322990088 l 2.24432579325249 -1.2448896849476068 a23.566466168479018,23.566466168479018 0 0,0 0.19319413066839966,0.35545544052142924 l -2.2653652735362306 1.2061794109515742" fill="#ff0901" stroke="none" /><path d="M 118.53625476483649 90.13048839642627 l 4.257169810169451 -2.2667031378720783 a25.823011290455096,25.823011290455096 0 0,0 0.20497560080417943,0.39306774158804436 l -4.295453479948575 2.1932891531795358" fill="#ff2a04" stroke="none" /><path d="M 119.0197475246899 91.09779779509293 l 4.214126297443633 -1.972423890914464 a25.652882596440204,25.652882596440204 0 0,0 0.183253852891215,0.4004427406222037 l -4.247364615189899 1.899792168077576" fill="#ff2803" stroke="none" /><path d="M 119.16976305983485 91.42560881287824 l 2.239674223322134 -1.001777792585952 a23.453507565167058,23.453507565167058 0 0,0 0.16123294477470412,0.3689325307416069 l -2.2565410501138086 0.9631831920684957" fill="#ff0801" stroke="none" /><path d="M 119.4528033332814 92.08871423366111 l 3.641882661923399 -1.4811219736467063 a24.931543160647912,24.931543160647912 0 0,0 0.15783011347218054,0.3978349882109147 l -3.666771450361704 1.4183859682222262" fill="#ff1d03" stroke="none" /><path d="M 119.94978838288452 93.4421083053983 l 6.45184483004791 -2.1208495455585576 a27.791487650427694,27.791487650427694 0 0,0 0.14509179273940417,0.4544979742352508 l -6.487301338564571 2.00978253763192" fill="#ff4606" stroke="none" /><path d="M 120.26092885502905 94.47779374421319 l 11.7954879584969 -3.2149126952934157 a33.2257596826293,33.2257596826293 0 0,0 0.14526067843425983,0.5515784563042301 l -11.848938117735889 3.011953734616387" fill="#ff920d" stroke="none" /><path d="M 120.43855184770803 95.1765574152323 l 10.128837786686365 -2.3903781382625677 a31.407077522190807,31.407077522190807 0 0,0 0.11933065030891361,0.5257928632436975 l -10.168379298552946 2.2161509410798437" fill="#ff790b" stroke="none" /><path d="M 120.86939407059847 97.66154086499901 l 2.6550640904895966 -0.29750546927309174 a23.67168015092652,23.67168015092652 0 0,0 0.04178345472067048,0.4042170215279593 l -2.659779937691933 0.251883925462201" fill="#ff0b01" stroke="none" /><line stroke="#e1ed5e" stroke-width="0.3" x1="184.99686870605535" x2="189.99668451229388" y1="99.2704041080226" y2="99.22748670261217" /><path d="M 185.99683186730306 99.26182062694052 a86.0,86.0 0 0,1 -10.086455211305974,41.156179273409016" fill="none" id="id16" stroke="none" /><text fill="#e1ed5e" style="font-size:6.75px; font-family:Arial;" text-anchor="middle"><textPath startOffset="21.40746469413373" xlink:href="#id16">April</textPath></text><path d="M 120.99922638620191 100.18025310272382 l 2.3897307229810862 0.02051296412399418 a23.389818760922438,23.389818760922438 0 0,0 -0.0068928330141294555,0.4014729670142369 l -2.389026458368288 -0.06153284710730209" fill="#ff0701" stroke="none" /><path d="M 120.65975698304385 103.76489593502545 l 2.1574041277721374 0.39315089899279904 a23.19293415311703,23.19293415311703 0 0,0 -0.0747405641427223,0.3910742139509512 l -2.1503372713472557 -0.43012767797706475" fill="#ff0400" stroke="none" /><path d="M 120.592083275326 104.11899336999214 l 8.247895124162037 1.6498100206073512 a29.411280941882296,29.411280941882296 0 0,0 -0.10327881829724486,0.4942265329053924 l -8.218358595040428 -1.7911530047981525" fill="#ff5d08" stroke="none" /><path d="M 120.51834098615036 104.47187691870673 l 19.122789192923396 4.167722900737928 a40.57168824333566,40.57168824333566 0 0,0 -0.15415143095651437,0.6792196476422312 l -19.04842690040922 -4.495376882319177" fill="#fff116" stroke="none" /><path d="M 120.16314734710363 105.8691983318838 l 4.449472514404251 1.2951766016358321 a25.634143727363647,25.634143727363647 0 0,0 -0.12661274861704908,0.4214526615813998 l -4.426583445783572 -1.3713668668079555" fill="#ff2703" stroke="none" /><path d="M 120.05942366710727 106.21446072829308 l 3.1681304802416403 0.9814949212052388 a24.316682532318673,24.316682532318673 0 0,0 -0.12695078098976287,0.3976715133092408 l -3.1508149834746226 -1.035735468205863" fill="#ff1402" stroke="none" /><path d="M 119.83427380445688 106.89939002012753 l 5.050513878129089 1.7568308974059552 a26.347349365363623,26.347349365363623 0 0,0 -0.1522623732749214,0.4259049572171554 l -5.019611334810224 -1.8432708110040321" fill="#ff3204" stroke="none" /><path d="M 119.0197475246899 108.90220220490707 l 8.672484895087061 4.0591608303342115 a30.575425886196015,30.575425886196015 0 0,0 -0.22657954593340665,0.47346410677266415 l -8.601526091193742 -4.207437439171979" fill="#ff6d0a" stroke="none" /><path d="M 118.8641267826498 109.22738970284198 l 36.4360069091356 17.82267681084838 a61.56143991756863,61.56143991756863 0 0,0 -0.4724989632725923,0.9453144410526401 l -36.12468803265128 -18.445523108064766" fill="#31ff3d" stroke="none" /><path d="M 118.70294669586154 109.54985784667822 l 4.019969920810595 2.052625284985611 a25.513693468190347,25.513693468190347 0 0,0 -0.20252032532351777,0.3883594271136738 l -3.984141526512128 -2.1213309552037876" fill="#ff2603" stroke="none" /><line stroke="#e1ed5e" stroke-width="0.3" x1="174.33088141563837" x2="178.70328620479359" y1="141.23008692659167" y2="143.65538615756765" /><path d="M 175.20536237346943 141.71514677278685 a86.0,86.0 0 0,1 -30.301960400862466,31.631185727798858" fill="none" id="id17" stroke="none" /><text fill="#e1ed5e" style="font-size:6.75px; font-family:Arial;" text-anchor="middle"><textPath startOffset="22.145653131862474" xlink:href="#id17">May</textPath></text><path d="M 118.36410011445183 110.18625677009912 l 1.8285132717658337 1.0142454886250105 a23.090969798017174,23.090969798017174 0 0,0 -0.19524694311556634,0.34498264028445313 l -1.810832963628889 -1.0454848990085863" fill="#ff0200" stroke="none" /><path d="M 118.18653347947321 110.5 l 5.072408446734439 2.9285563821618585 a26.85711276432372,26.85711276432372 0 0,0 -0.23394628545734567,0.39729193824978876 l -5.021388451147328 -3.0151994887051967" fill="#ff3905" stroke="none" /><path d="M 118.00360718960297 110.81064883170644 l 1.7516471341211592 1.0518137751297187 a23.043178871275714,23.043178871275714 0 0,0 -0.20654592687421136,0.33737724902000504 l -1.733333242791543 -1.0817281402742807" fill="#ff0100" stroke="none" /><path d="M 117.62189284568427 111.42229804090321 l 5.390643420084183 3.4941499369924487 a27.424026795140353,27.424026795140353 0 0,0 -0.2594516147894064,0.392842813187951 l -5.32986736637405 -3.586172628519461" fill="#ff4106" stroke="none" /><path d="M 117.21940702142032 112.02048342749411 l 1.6753489810506035 1.169523702932183 a23.043178871275714,23.043178871275714 0 0,0 -0.2292081975277581,0.322410034351771 l -1.6550256849928848 -1.1981109639934582" fill="#ff0100" stroke="none" /><path d="M 116.79662413953412 112.60449989151573 l 7.781974501282479 5.839738744068478 a30.729423196551025,30.729423196551025 0 0,0 -0.32024159540990293,0.4192065282848828 l -7.680580928518271 -5.972466185594238" fill="#ff6f0a" stroke="none" /><path d="M 115.89218393027572 113.72728997021213 l 5.5184661602647 4.766719634325447 a28.292124850429424,28.292124850429424 0 0,0 -0.3206291757859315,0.36481714495839485 l -5.435825920520183 -4.860749057095135" fill="#ff4d07" stroke="none" /><path d="M 115.6541949942343 113.99807769240083 l 1.4505360752403438 1.297078302929219 a22.945884639310204,22.945884639310204 0 0,0 -0.265082112843507,0.29137167756630655 l -1.428056261554957 -1.3217875560531973" fill="#ff0000" stroke="none" /><path d="M 115.16444852881244 114.52719865689866 l 7.166574556105031 6.865416310273579 a30.92440083740991,30.92440083740991 0 0,0 -0.37052321034263647,0.38018945512479524 l -7.047664544611588 -6.987428457466111" fill="#ff720a" stroke="none" /><path d="M 114.39649973595853 115.28858382429668 l 2.0811146686417414 2.2100716592958882 a24.03569679040228,24.03569679040228 0 0,0 -0.30281570459356544,0.2802816953958305 l -2.0428691927342086 -2.245471100824098" fill="#ff1001" stroke="none" /><path d="M 113.03279911837588 116.46651593811092 l 2.8796768224489333 3.6383775935443983 a25.640078675513543,25.640078675513543 0 0,0 -0.34747197189625906,0.2701963070119654 l -2.8167949059174435 -3.687274952177157" fill="#ff2803" stroke="none" /><path d="M 111.8722381534696 117.32195027204791 l 2.2001910340065765 3.210144472121265 a24.891769278620412,24.891769278620412 0 0,0 -0.3545343136699211,0.23854650860082363 l -2.1447604322396523 -3.2474406547792096" fill="#ff1d02" stroke="none" /><path d="M 111.27062007382361 117.71928675628689 l 2.51856220217004 3.9595981038740127 a25.692714855006884,25.692714855006884 0 0,0 -0.37417875387802213,0.2335152165608676 l -2.450219319502303 -4.002249117276428" fill="#ff2803" stroke="none" /><line stroke="#e1ed5e" stroke-width="0.3" x1="143.1302829299769" x2="145.66735839644613" y1="173.24464959558577" y2="177.55315839532614" /><path d="M 143.63769802327073 174.10635135553383 a86.0,86.0 0 0,1 -40.68552437913181,11.842963189579606" fill="none" id="id18" stroke="none" /><text fill="#e1ed5e" style="font-size:6.75px; font-family:Arial;" text-anchor="middle"><textPath startOffset="21.407464694133747" xlink:href="#id18">June</textPath></text><path d="M 106.0420521117495 120.11202640906438 l 2.475465067791472 8.240018109298054 a29.60382622694204,29.60382622694204 0 0,0 -0.4879556211262277,0.14203676976842378 l -2.3336494342836374 -8.281298573368995" fill="#ff6008" stroke="none" /><path d="M 105.69591212413111 120.21278271476187 l 0.6311311629443009 2.2396618457406667 a23.326888851687144,23.326888851687144 0 0,0 -0.38635837147361435,0.10530369220449823 l -0.5925913905359915 -2.2501660320893073" fill="#ff0600" stroke="none" /><path d="M 104.64783097203109 120.47920084513623 l 2.232964426795467 9.838853274047821 a31.08906159558834,31.08906159558834 0 0,0 -0.5214636155242318,0.11365056793734855 l -2.0637383946520993 -9.875735300118889" fill="#ff740a" stroke="none" /><path d="M 103.58742460773223 120.69131181640829 l 3.985020617022293 22.984539940965508 a44.32744018566828,44.32744018566828 0 0,0 -0.7508698907672146,0.12355535478623687 l -3.589873223202006 -23.049561294247415" fill="#dfff1b" stroke="none" /><path d="M 103.2317021107853 120.74984581791261 l 1.563203170899358 10.036885723465325 a31.157887535280743,31.157887535280743 0 0,0 -0.5292017260063748,0.07777442966064507 l -1.3906763392852977 -10.062241226424852" fill="#ff750a" stroke="none" /><path d="M 101.08105385017728 120.97215588758144 l 1.1841398975226722 22.971997666423082 a44.00249690974987,44.00249690974987 0 0,0 -0.7546936121968337,0.03240979095448297 l -0.789620524725009 -22.988940025803394" fill="#e3ff1b" stroke="none" /><path d="M 100.72087961077811 120.9876233191556 l 0.202500114348927 5.895569882263435 a26.899046578300855,26.899046578300855 0 0,0 -0.4616218214766925,0.01188974063590908 l -0.10126497880149066 -5.898177340249389" fill="#ff3a05" stroke="none" /><line stroke="#e1ed5e" stroke-width="0.3" x1="101.45913802915013" x2="101.54496967792366" y1="184.9874750549273" y2="189.98673829345242" /><path d="M 101.47630435890484 185.9873277026323 a86.0,86.0 0 0,1 -42.54439059252881,-10.42667462771756" fill="none" id="id19" stroke="none" /><text fill="#e1ed5e" style="font-size:6.75px; font-family:Arial;" text-anchor="middle"><textPath startOffset="22.145653131862474" xlink:href="#id19">July</textPath></text><path d="M 100.0 121.0 l 3.2936930211562564e-16 2.6895044542226003 a23.6895044542226,23.6895044542226 0 0,0 -0.40666184518679127,-0.0034907028481049617 l 0.04616892033793877 -2.68910814956893" fill="#ff0b01" stroke="none" /><path d="M 99.63950707515114 120.99690560180557 l -0.17904415200995205 10.428424246840766 a31.429961125549095,31.429961125549095 0 0,0 -0.5393780728058091,-0.01389246584973181 l 0.358035538886505 -10.423814063640986" fill="#ff790b" stroke="none" /><path d="M 98.55909050195518 120.95050786540614 l -0.4120582047638275 5.991235862921051 a27.005389173839156,27.005389173839156 0 0,0 -0.46221781796376016,-0.03577858238018136 l 0.5148450175028237 -5.983279513545816" fill="#ff3b05" stroke="none" /><path d="M 96.41257539226777 120.69131181640829 l -0.7015551528069275 4.046383690363427 a25.106750613571403,25.106750613571403 0 0,0 -0.42402344742997433,-0.07727119708594848 l 0.7709133337879589 -4.033744319346113" fill="#ff2003" stroke="none" /><path d="M 96.05791012581884 120.62667999033965 l -7.590567533411299 39.71705680334297 a61.435891440640326,61.435891440640326 0 0,0 -1.0341811208954708,-0.20686518811060103 l 8.271245139837728 -39.580902218569506" fill="#31ff3b" stroke="none" /><path d="M 95.00130118170881 120.39639698878247 l -0.9263705949572287 3.7799081521661653 a24.891769278620412,24.891769278620412 0 0,0 -0.41414535372405265,-0.10527412941384735 l 0.9911212419066601 -3.763448790917055" fill="#ff1d02" stroke="none" /><path d="M 93.27111125876986 119.89276391827306 l -16.02627395051383 47.378831252433336 a71.0159485322779,71.0159485322779 0 0,0 -1.1514533603804016,-0.4005352503233954 l 16.837233082939253 -47.096737569541354" fill="#3dffaa" stroke="none" /><path d="M 92.93061703081489 119.77432235084164 l -1.6058468187539905 4.491839355503943 a25.770258357883396,25.770258357883396 0 0,0 -0.41528261871351685,-0.15249752985524373 l 1.6827185891216263 -4.46361097663998" fill="#ff2904" stroke="none" /><path d="M 92.59220618246901 119.65005319985036 l -3.610878542129354 9.578284331176055 a31.236306686244944,31.236306686244944 0 0,0 -0.500119653579734,-0.19345702579845184 l 3.774770458202616 -9.514887417239564" fill="#ff760a" stroke="none" /><path d="M 91.59046798132341 119.24265499422711 l -4.2744194165862615 9.780708123986527 a31.67393614162581,31.67393614162581 0 0,0 -0.49635561252455007,-0.2220135520937191 l 4.441688431966447 -9.705890820982951" fill="#ff7c0b" stroke="none" /><path d="M 91.26138138417905 119.09545874513695 l -0.8488730337802238 1.854940776001207 a23.03994870277446,23.03994870277446 0 0,0 -0.3582287277751327,-0.1676691326276072 l 0.8805904754268464 -1.8400954118030735" fill="#ff0100" stroke="none" /><path d="M 90.6110303473126 118.78422872680471 l -4.36430220422213 8.731527938589233 a30.76149137540686,30.76149137540686 0 0,0 -0.4703179761969312,-0.24014770979440866 l 4.513547402132644 -8.655322277121988" fill="#ff700a" stroke="none" /><path d="M 90.28995756902619 118.62028667847754 l -5.513414830497148 10.57269990847308 a32.923914057379505,32.923914057379505 0 0,0 -0.4988932229114379,-0.2656325409278099 l 5.694096869195148 -10.476496899822697" fill="#ff8d0d" stroke="none" /><line stroke="#e1ed5e" stroke-width="0.3" x1="58.13341422392154" x2="55.67067388415222" y1="173.97424548756322" y2="178.32567169271397" /><path d="M 57.64086615596768 174.84453072859336 a86.0,86.0 0 0,1 -31.369924170532247,-30.572349798747897" fill="none" id="id20" stroke="none" /><text fill="#e1ed5e" style="font-size:6.75px; font-family:Arial;" text-anchor="middle"><textPath startOffset="22.145653131862474" xlink:href="#id20">August</textPath></text><path d="M 89.65649057296885 118.27599006163327 l -5.956034793403148 10.523742783712173 a33.09229145521902,33.09229145521902 0 0,0 -0.49198393562277676,-0.28404705766878385 l 6.135811196886325 -10.419948828767216" fill="#ff900d" stroke="none" /><path d="M 89.03521579738668 117.91015095944536 l -17.32051798132959 28.291764435041518 a54.17264351825826,54.17264351825826 0 0,0 -0.7889494107700403,-0.4923627827666314 l 17.803631520889343 -27.99026585543334" fill="#70ff27" stroke="none" /><path d="M 88.4268655584334 117.5232005979908 l -6.925603016536415 10.486245669534451 a33.5668343422076,33.5668343422076 0 0,0 -0.47809355945653326,-0.3216826834399952 l 7.104592864089953 -10.365813312037334" fill="#ff960d" stroke="none" /><path d="M 88.1277618465304 117.32195027204791 l -9.22893231219915 13.465288053482217 a37.32443487494757,37.32443487494757 0 0,0 -0.5253945794380765,-0.3667662206471082 l 9.458721982810992 -13.30487701702998" fill="#ffc812" stroke="none" /><path d="M 87.54013794807813 116.9041958592261 l -9.958243029563777 13.510269205553062 a37.78374148521035,37.78374148521035 0 0,0 -0.5188013773823184,-0.3893182255321338 l 10.188697395856861 -13.337331952756912" fill="#ffce13" stroke="none" /><path d="M 86.40962598614128 116.0094264158162 l -6.313941313606699 7.437806991249085 a30.756373698805476,30.756373698805476 0 0,0 -0.399569993957901,-0.3451390441062477 l 6.440690787327462 -7.328323814678115" fill="#ff700a" stroke="none" /><path d="M 86.13680546590413 115.77377054828092 l -7.963264771291003 9.06073351337742 a33.06277238524068,33.06277238524068 0 0,0 -0.4231011071472689,-0.37833961898198104 l 8.117630905261644 -8.922698364512057" fill="#ff8f0d" stroke="none" /><path d="M 85.08716467003676 114.78537596483092 l -44.73850598988974 44.35612789449277 a84.0,84.0 0 0,0 -1.0064527953967621,-1.0327092317290507 l 45.493345586437314 -43.581595970695986" fill="#4dd2ff" stroke="none" /><path d="M 84.83555147118756 114.52719865689866 l -1.6724442900606495 1.602163797657703 a23.31603081539979,23.31603081539979 0 0,0 -0.2744009998310388,-0.2914043527475766 l 1.6997011236279413 -1.5732179849656363" fill="#ff0500" stroke="none" /><path d="M 84.58840730492382 114.26474011684316 l -10.530087016953026 9.746491337820586 a35.34840848257445,35.34840848257445 0 0,0 -0.4083621509263313,-0.4488615383876658 l 10.695846868721237 -9.564292223875245" fill="#ffae10" stroke="none" /><path d="M 84.3458050057657 113.99807769240083 l -10.765196998478475 9.62630553753829 a35.441441227179865,35.441441227179865 0 0,0 -0.401650994734791,-0.45700510195203403 l 10.928859057171858 -9.440088157774955" fill="#ffaf10" stroke="none" /><path d="M 83.8745106332314 113.45245675266167 l -8.341454090527499 6.95873767641326 a31.8629593754884,31.8629593754884 0 0,0 -0.346780033987533,-0.423015255819986 l 8.459680943753662 -6.814520138894778" fill="#ff7f0b" stroke="none" /><path d="M 83.4222238831116 112.89097897827486 l -1.5391116122657773 1.1968224989312304 a22.94967911435686,22.94967911435686 0 0,0 -0.2391662806919253,-0.31307633876647745 l 1.5594298703119975 -1.1702252469238827" fill="#ff0000" stroke="none" /><path d="M 83.20337586046588 112.60449989151573 l -1.8216979749542173 1.3670361220764766 a23.27758013492702,23.27758013492702 0 0,0 -0.23709654189697324,-0.32166699479256583 l 1.844896536435021 -1.3355628180150312" fill="#ff0500" stroke="none" /><path d="M 82.98947788004972 112.3143062007846 l -16.32377052547493 11.817151007157234 a41.15218454893467,41.15218454893467 0 0,0 -0.4093366673705283,-0.5757832852919182 l 16.52422229137542 -11.535190495155812" fill="#fff817" stroke="none" /><path d="M 82.78059297857968 112.02048342749411 l -11.183002315626535 7.806604132035269 a34.63827734230458,34.63827734230458 0 0,0 -0.3361731629237553,-0.49048669136245004 l 11.315365215365615 -7.613482705602768" fill="#ffa40f" stroke="none" /><path d="M 82.37810715431573 111.42229804090323 l -12.938138571159175 8.386345107669808 a36.41837261034556,36.41837261034556 0 0,0 -0.33553860951800585,-0.527522425643996 l 13.080194872303071 -8.163009007347139" fill="#ffbc11" stroke="none" /><path d="M 82.18462484594161 111.11811171558189 l -1.9264430739741678 1.2022429572736015 a23.270808456382223,23.270808456382223 0 0,0 -0.20858626878634326,-0.34070999419582493 l 1.9467973072159157 -1.1689958469532196" fill="#ff0500" stroke="none" /><path d="M 81.99639281039703 110.81064883170644 l -29.424251970735547 17.668417880999282 a55.32141597392144,55.32141597392144 0 0,0 -0.48189244640367257,-0.818358725744988 l 29.72321812726899 -17.160707986960734" fill="#64ff29" stroke="none" /><line stroke="#e1ed5e" stroke-width="0.3" x1="26.387840678322732" x2="22.057713659400548" y1="142.50000000000003" y2="145.00000000000006" /><path d="M 25.521815274538298 143.00000000000003 a86.0,86.0 0 0,1 -11.493303480769221,-40.785679425670985" fill="none" id="id21" stroke="none" /><text fill="#e1ed5e" style="font-size:6.75px; font-family:Arial;" text-anchor="middle"><textPath startOffset="21.40746469413373" xlink:href="#id21">September</textPath></text><path d="M 81.63589988554817 110.18625677009913 l -24.16317259927648 13.402904522544908 a48.63144512512656,48.63144512512656 0 0,0 -0.3986728301532117,-0.7335131040252237 l 24.389690779045022 -12.986136585045097" fill="#adff20" stroke="none" /><path d="M 81.4637452351635 109.86951160357371 l -12.810687683843936 6.8209696267935325 a35.513419499987954,35.513419499987954 0 0,0 -0.2818952606550326,-0.5405713315893789 l 12.925891013473917 -6.600052052099651" fill="#ffb010" stroke="none" /><path d="M 81.29705330413844 109.54985784667822 l -3.3794221207792097 1.7255570142058108 a24.794475046654902,24.794475046654902 0 0,0 -0.1903036018994885,-0.3807346831280455 l 3.408545635890435 -1.6672904749140125" fill="#ff1b02" stroke="none" /><path d="M 81.1358732173502 109.22738970284198 l -15.613481295020287 7.637336102919706 a38.38130319909612,38.38130319909612 0 0,0 -0.28442508972899727,-0.5943390454664125 l 15.742285642709197 -7.368184555388189" fill="#ffd513" stroke="none" /><path d="M 80.9802524753101 108.90220220490708 l -1.8540012639932228 0.867766205560611 a23.04703172286155,23.04703172286155 0 0,0 -0.16463870463845592,-0.35976528219055226 l 1.8686244334867348 -0.8358119411553698" fill="#ff0200" stroke="none" /><path d="M 80.68587082218212 108.24405325689762 l -5.245361321301214 2.238932839599227 a26.703212748200674,26.703212748200674 0 0,0 -0.17633549885806105,-0.4231410045749678 l 5.2830226646957605 -2.148559325582978" fill="#ff3705" stroke="none" /><path d="M 80.5471966667186 107.91128576633889 l -18.490173759529476 7.519792699010604 a40.96080679465852,40.96080679465852 0 0,0 -0.25930399665421316,-0.6536154614762739 l 18.616536431149814 -7.201276220320764" fill="#fff617" stroke="none" /><path d="M 80.41425534168474 107.57618678355246 l -18.249068016710766 7.059131543495106 a40.56680407289099,40.56680407289099 0 0,0 -0.245659653989681,-0.6516414183302611 l 18.36755835451488 -6.7448218449707" fill="#fff116" stroke="none" /><path d="M 80.16572619554312 106.89939002012753 l -13.159312095862166 4.5774918427078255 a34.93272860592501,34.93272860592501 0 0,0 -0.1921542580114444,-0.5680699202367593 l 13.235951775445978 -4.350920247996905" fill="#ffa80f" stroke="none" /><path d="M 79.83685265289637 105.86919833188381 l -3.8532102025739534 1.121613332682078 a25.01313410357419,25.01313410357419 0 0,0 -0.11646771288515984,-0.41330282534723756 l 3.871896407533688 -1.0553025834318448" fill="#ff1e03" stroke="none" /><path d="M 79.48165901384964 104.47187691870673 l -11.040845540092318 2.406300897673519 a32.30002452432387,32.30002452432387 0 0,0 -0.11342274994536831,-0.5427689179862725 l 11.080526000862054 -2.2164155284018374" fill="#ff850c" stroke="none" /><path d="M 79.22317932658666 103.0534771498775 l -13.476432067365916 1.9805714274771093 a34.62119247517144,34.62119247517144 0 0,0 -0.0813688424784345,-0.5887444103304256 l 13.508445426399563 -1.748938708946598" fill="#ffa40f" stroke="none" /><path d="M 79.17382384314188 102.69636545807758 l -23.92924618390779 3.098119998705401 a45.12896952744654,45.12896952744654 0 0,0 -0.09287523391559797,-0.7691401689430644 l 23.978903504083046 -2.6868861528389374" fill="#d6ff1c" stroke="none" /><path d="M 79.0935383218832 101.97986365728391 l -13.866639953384665 1.313185220676729 a34.92868116587524,34.92868116587524 0 0,0 -0.05140566660870738,-0.597411767509929 l 13.887139242691113 -1.074952405791138" fill="#ffa80f" stroke="none" /><path d="M 79.03789590574601 101.26102812881392 l -8.948338335551407 0.5383098135824721 a29.96451540368458,29.96451540368458 0 0,0 -0.026480656123639548,-0.5137176544344707 l 8.956260581131618 -0.38462036577127057" fill="#ff6509" stroke="none" /><path d="M 79.00696218219943 100.54070618675478 l -21.396992739687565 0.5511106326158216 a42.40408889048129,42.40408889048129 0 0,0 -0.012496219266428068,-0.7278421245760203 l 21.40330039055266 -0.18372159207074898" fill="#f7ff19" stroke="none" /><line stroke="#e1ed5e" stroke-width="0.3" x1="15.003131293944662" x2="10.003315487706104" y1="100.72959589197737" y2="100.7725132973878" /><path d="M 14.003168132696942 100.73817937305945 a86.0,86.0 0 0,1 10.791469493833604,-42.45332614584628" fill="none" id="id22" stroke="none" /><text fill="#e1ed5e" style="font-size:6.75px; font-family:Arial;" text-anchor="middle"><textPath startOffset="22.145653131862435" xlink:href="#id22">October</textPath></text><path d="M 79.00077361379809 100.18025310272382 l -34.45984152784457 0.29579629461238616 a55.46111103217752,55.46111103217752 0 0,0 0.0,-0.9520987946723948 l 34.45984152784457 0.2957962946123735" fill="#62ff29" stroke="none" /><path d="M 79.00696218219943 99.45929381324524 l -11.457305126184744 -0.2950995381912851 a32.46110485476596,32.46110485476596 0 0,0 0.019129349190751703,-0.5569301297380383 l 11.450551089997141 0.491735932493462" fill="#ff870c" stroke="none" /><path d="M 79.03789590574601 98.7389718711861 l -2.7139614743864864 -0.16326518293823167 a23.718867853429792,23.718867853429792 0 0,0 0.027938611254436203,-0.40622127595717217 l 2.7107589019669867 0.2098298830497288" fill="#ff0b01" stroke="none" /><path d="M 79.22317932658666 96.9465228501225 l -55.05719312939101 -8.091511391447566 a76.64860350345718,76.64860350345718 0 0,0 0.20249286438368402,-1.3001494479229483 l 54.91017877286906 9.035449021301964" fill="#44ffe5" stroke="none" /><path d="M 79.407916724674 95.88100663000787 l -13.529516986370657 -2.706282313496249 a34.79752854118573,34.79752854118573 0 0,0 0.12219282915626034,-0.5847369218148039 l 13.48106644639003 2.938135686596462" fill="#ffa70f" stroke="none" /><path d="M 79.56144815229197 95.17655741523228 l -26.543927840673675 -6.26429469503067 a48.27309100995119,48.27309100995119 0 0,0 0.19725873058417906,-0.8048829354903165 l 26.432481583573196 6.719033455129105" fill="#b1ff20" stroke="none" /><path d="M 79.73907114497095 94.47779374421319 l -13.75296056977179 -3.748430559990446 a35.25463630180609,35.25463630180609 0 0,0 0.1641548332834657,-0.5825275924956139 l 13.686587244413744 3.983966076389073" fill="#ffad10" stroke="none" /><path d="M 80.16572619554312 93.10060997987247 l -20.652332947675962 -7.1839534553328726 a42.8661391980855,42.8661391980855 0 0,0 0.24772511256915788,-0.692931229174266 l 20.525967665062858 7.53741964088806" fill="#f1ff19" stroke="none" /><path d="M 80.28708602549916 92.7611449362534 l -13.041567755581733 -4.789044324385723 a34.89307147697586,34.89307147697586 0 0,0 0.21130133520671568,-0.5605018957446141 l 12.957435736560582 5.0122145003244825" fill="#ffa80f" stroke="none" /><path d="M 80.5471966667186 92.08871423366112 l -9.012597904227293 -3.6653451071219707 a30.729423196551025,30.729423196551025 0 0,0 0.20292270522204092,-0.48694062111589054 l 8.948349354468773 3.8195182376791252" fill="#ff6f0a" stroke="none" /><path d="M 80.9802524753101 91.09779779509293 l -37.21756236102762 -17.419698409850913 a62.09249129448277,62.09249129448277 0 0,0 0.46013712239835947,-0.9615096135522956 l 36.91304598066935 18.056020525468295" fill="#31ff43" stroke="none" /><path d="M 81.46374523516351 90.13048839642627 l -8.630088085585925 -4.595035813929966 a30.777155746753305,30.777155746753305 0 0,0 0.2523062136864866,-0.4642150153420449 l 8.549936522284089 4.742505662746631" fill="#ff700a" stroke="none" /><line stroke="#e1ed5e" stroke-width="0.3" x1="26.387840678322718" x2="22.05771365940052" y1="57.49999999999999" y2="54.99999999999999" /><path d="M 25.521815274538284 56.99999999999999 a86.0,86.0 0 0,1 29.574782752854787,-30.34633250058573" fill="none" id="id23" stroke="none" /><text fill="#e1ed5e" style="font-size:6.75px; font-family:Arial;" text-anchor="middle"><textPath startOffset="21.40746469413373" xlink:href="#id23">November</textPath></text><path d="M 81.81346652052679 89.5 l -8.444026544980103 -4.875160998788609 a30.750321997577217,30.750321997577217 0 0,0 0.26785915787292536,-0.4548834096735148 l 8.359093676977398 5.019395576755697" fill="#ff700a" stroke="none" /><path d="M 81.99639281039701 89.18935116829357 l -1.997127968203001 -1.1992179627586126 a23.329515795950215,23.329515795950215 0 0,0 0.20911248793056053,-0.34156953362099424 l 1.9762475158170474 1.23332461250415" fill="#ff0600" stroke="none" /><path d="M 82.18462484594161 88.88188828441811 l -9.464593791325074 -5.906606524117098 a32.15645715563556,32.15645715563556 0 0,0 0.2962716933145494,-0.46578831131073833 l 9.361804406384636 6.068208510106508" fill="#ff830c" stroke="none" /><path d="M 82.37810715431573 88.57770195909679 l -9.679364043482899 -6.274046830226913 a32.53489280028861,32.53489280028861 0 0,0 0.3078041943691083,-0.4660547814480203 l 9.570235410193062 6.439281490013995" fill="#ff880c" stroke="none" /><path d="M 82.576782715395 88.27688183743585 l -12.961432015334013 -8.721029910248719 a36.622262402852485,36.622262402852485 0 0,0 0.35542823517828664,-0.518580417226616 l 12.809814043340413 8.94224506254537" fill="#ffbe11" stroke="none" /><path d="M 83.2033758604659 87.39550010848427 l -3.123824640355811 -2.344176247166482 a24.90556560071312,24.90556560071312 0 0,0 0.2595492278375554,-0.339758270881502 l 3.083123435163949 2.3974554312888685" fill="#ff1d02" stroke="none" /><path d="M 83.42222388311158 87.10902102172516 l -23.72222689465968 -18.44654711589399 a51.05027702602111,51.05027702602111 0 0,0 0.5438886045604183,-0.6871854844231724 l 23.4020718594577 18.851052544231845" fill="#92ff23" stroke="none" /><path d="M 83.64595745247003 86.82634096563983 l -24.9918317146619 -20.131650550388862 a53.09166568342866,53.09166568342866 0 0,0 0.5778223363746143,-0.7048492977793493 l 24.642562559048656 20.557702129866705" fill="#7bff26" stroke="none" /><path d="M 83.8745106332314 86.54754324733833 l -35.34042554382028 -29.482239914444907 a67.02334351164845,67.02334351164845 0 0,0 0.744614781580845,-0.8771543403949986 l 34.82911619873232 30.084561037289465" fill="#38ff7d" stroke="none" /><path d="M 84.10781606972428 86.27271002978789 l -5.378467180193834 -4.6457918497365975 a28.1071295977702,28.1071295977702 0 0,0 0.31853266038815636,-0.36243169528775143 l 5.2979234558470845 4.737435822835649" fill="#ff4b07" stroke="none" /><path d="M 84.34580500576568 86.00192230759919 l -27.089617021397842 -24.22370258340189 a57.340543711055275,57.340543711055275 0 0,0 0.6624260828228333,-0.7281223049920047 l 26.669793237733142 24.685162463951553" fill="#4fff2b" stroke="none" /><path d="M 84.58840730492382 85.73525988315684 l -35.09279752132444 -32.481369480691214 a68.81781886717391,68.81781886717391 0 0,0 0.8099010699055225,-0.8600868699848353 l 34.53004061768265 33.07899781062056" fill="#3aff91" stroke="none" /><path d="M 84.83555147118756 85.47280134310135 l -28.681586317273446 -27.476310888217114 a60.718774574515336,60.718774574515336 0 0,0 0.7275069095665299,-0.7464861790759387 l 28.205692606556116 27.964619759360783" fill="#30ff32" stroke="none" /><path d="M 85.34317274990677 84.96080404539775 l -30.37942012797029 -31.17196133213801 a64.52700702557016,64.52700702557016 0 0,0 0.7999121587389987,-0.7662977533268837 l 29.839835483365988 31.68887121577046" fill="#34ff60" stroke="none" /><path d="M 85.60350026404147 84.71141617570332 l -3.484825885662213 -3.7007643276616475 a26.083273360962835,26.083273360962835 0 0,0 0.32861226657098136,-0.3041586080418194 l 3.4207838477772783 3.7600406818358327" fill="#ff2e04" stroke="none" /><path d="M 85.86807049272753 84.46653392183569 l -13.685518646836957 -15.042782342873183 a41.33663495389489,41.33663495389489 0 0,0 0.5289809278831515,-0.47301800757138085 l 13.425272692130413 15.275495880327966" fill="#fffa17" stroke="none" /><path d="M 86.40962598614128 83.9905735841838 l -7.3371855300015065 -8.643186105251186 a32.33750226247698,32.33750226247698 0 0,0 0.4262785997786173,-0.3556167690590959 l 7.18773259606098 8.767865058222164" fill="#ff860c" stroke="none" /><path d="M 86.68645165197937 83.75963576809568 l -1.329293818521487 -1.6215223184446885 a23.096749075395927,23.096749075395927 0 0,0 0.3087806909626477,-0.24873186720126308 l 1.3012623572035937 1.6441024794393506" fill="#ff0200" stroke="none" /><path d="M 86.96720088162412 83.53348406188908 l -10.668532631576173 -13.479342466532055 a38.190411915979794,38.190411915979794 0 0,0 0.5175529257891192,-0.40245228548450535 l 10.43556976115181 13.660495803637366" fill="#ffd313" stroke="none" /><path d="M 87.25179093698888 83.31218511350988 l -2.9484467797493075 -3.859611481104984 a25.856947518564667,25.856947518564667 0 0,0 0.35503683489855525,-0.2664262598119381 l 2.8817569559400003 3.909656768180923" fill="#ff2b04" stroke="none" /><path d="M 87.54013794807813 83.09580414077388 l -8.458996507031635 -11.476253359106524 a35.256893527987685,35.256893527987685 0 0,0 0.49027059168550263,-0.35491809979038413 l 8.260744904972164 11.619772230269987" fill="#ffad10" stroke="none" /><path d="M 87.83215693770416 82.88440491214696 l -15.670812434027997 -22.042960198067238 a48.04563655446222,48.04563655446222 0 0,0 0.6763107625323909,-0.47211743718838045 l 15.29010658032184 22.308722451060746" fill="#b4ff20" stroke="none" /><path d="M 88.4268655584334 82.4767994020092 l -7.73481040381827 -11.711488791379372 a35.035179432184684,35.035179432184684 0 0,0 0.5046973883185237,-0.32713874952721006 l 7.532627383242721 11.842541382610488" fill="#ffaa0f" stroke="none" /><path d="M 89.03521579738668 82.08984904055464 l -4.0697287315106605 -6.647596030934716 a28.79443551122096,28.79443551122096 0 0,0 0.4237817528541804,-0.25446876635018295 l 3.955014222099046 6.716478797820822" fill="#ff5507" stroke="none" /><line stroke="#e1ed5e" stroke-width="0.3" x1="56.869717070023135" x2="54.33264160355391" y1="26.7553504044142" y2="22.446841604673864" /><path d="M 56.362301976729285 25.89364864446614 a86.0,86.0 0 0,1 42.16139366436587,-11.88097634709845" fill="none" id="id24" stroke="none" /><text fill="#e1ed5e" style="font-size:6.75px; font-family:Arial;" text-anchor="middle"><textPath startOffset="22.145653131862474" xlink:href="#id24">December</textPath></text><path d="M 89.65649057296885 81.72400993836675 l -5.710453271601997 -10.089823765856455 a32.59369743408856,32.59369743408856 0 0,0 0.4893025021703783,-0.27140784978824833 l 5.536406581275516 10.18636453107785" fill="#ff890c" stroke="none" /><path d="M 89.97174638481275 81.54914285379989 l -10.892765606939317 -20.041461839008964 a43.81036026046438,43.81036026046438 0 0,0 0.6638546009190343,-0.35346518323028314 l 10.54712219023372 20.22549748996182" fill="#e5ff1a" stroke="none" /><path d="M 90.61103034731259 81.2157712731953 l -5.163869219497855 -10.331197577850313 a32.5498566531649,32.5498566531649 0 0,0 0.5019494031008012,-0.24552860606195695 l 4.985759567135 10.418319934009483" fill="#ff880c" stroke="none" /><path d="M 90.93487009805054 81.0573650232925 l -3.000932457513736 -6.270794654604103 a27.95186746239964,27.95186746239964 0 0,0 0.43460000927813563,-0.20341474858307806 l 2.892843734364078 6.321385634757724" fill="#ff4906" stroke="none" /><path d="M 91.26138138417902 80.90454125486306 l -1.0351191814992773 -2.2619222208454723 a23.4875216286622,23.4875216286622 0 0,0 0.36806802705388086,-0.16463214686490238 l 0.9961377515897776 2.27935811862022" fill="#ff0801" stroke="none" /><path d="M 91.5904679813234 80.7573450057729 l -6.247814004741749 -14.296221132679094 a36.60183061413972,36.60183061413972 0 0,0 0.5778992007715166,-0.2466708047987276 l 6.001479728799802 14.401366587137225" fill="#ffbe11" stroke="none" /><path d="M 91.92203290615298 80.6158196554323 l -5.4040533524922125 -12.967760769434797 a35.04872278927428,35.04872278927428 0 0,0 0.5573506960214797,-0.2266696759715835 l 5.180648195280291 13.058617701985673" fill="#ffaa0f" stroke="none" /><path d="M 93.61358852112211 79.99465700312896 l -0.5986546936013664 -1.8752773011560373 a22.968515277665382,22.968515277665382 0 0,0 0.376639208804546,-0.11668378965888647 l 0.5663748519252042 1.8852776786215657" fill="#ff0000" stroke="none" /><path d="M 96.05791012581881 79.37332000966035 l -1.1766794949006096 -6.156884334746606 a27.268317106302753,27.268317106302753 0 0,0 0.46052975962484,-0.08392386325709739 l 1.070815001724731 6.176176371935065" fill="#ff3f05" stroke="none" /><path d="M 96.41257539226777 79.30868818359171 l -1.2320395879150225 -7.106076941314144 a28.212090615214592,28.212090615214592 0 0,0 0.47788930084462405,-0.07863650259577673 l 1.1098727840173257 7.126179442405588" fill="#ff4c07" stroke="none" /><path d="M 96.76829788921471 79.25015418208739 l -0.8983599280290686 -5.768115177875896 a26.837653917930616,26.837653917930616 0 0,0 0.4558246369959716,-0.06699052445494778 l 0.7992101854254121 5.782686775629729" fill="#ff3905" stroke="none" /><path d="M 97.12497278360702 79.19773525538626 l -0.6579044965742963 -4.760269202453221 a25.805517787547696,25.805517787547696 0 0,0 0.4393354726971386,-0.056880772743233575 l 0.5760912019863637 4.77086157139685" fill="#ff2a04" stroke="none" /><path d="M 97.84075906011542 79.11130261209362 l -1.1988221540617048 -11.59751685675784 a32.659312664126105,32.659312664126105 0 0,0 0.5581638845095309,-0.052858700183855634 l 0.9995587061671583 11.616387312446879" fill="#ff8a0c" stroke="none" /><path d="M 98.1996594967304 79.07731436759882 l -0.473478249636137 -5.502534966538507 a26.522868159829404,26.522868159829404 0 0,0 0.4539591030538985,-0.035139305614392685 l 0.3789501518070213 5.509852039147954" fill="#ff3405" stroke="none" /><path d="M 98.5590905019552 79.04949213459386 l -0.31199303006928236 -4.536310184149485 a25.54702647206173,25.54702647206173 0 0,0 0.43777341724725527,-0.026335361694300945 l 0.2340752606895433 4.54099752366848" fill="#ff2603" stroke="none" /><path d="M 98.9189461498227 79.02784411241856 l -1.8593714049819794 -36.07130852158585 a57.11919933333374,57.11919933333374 0 0,0 0.9796601988082678,-0.04207082415522842 l 1.2398854455728914 36.0979119141669" fill="#51ff2b" stroke="none" /><path d="M 99.63950707515114 79.00309439819443 l -0.22182159495259773 -12.919995840735035 a33.92189991234253,33.92189991234253 0 0,0 0.5823145198014467,-0.004998469801931167 l 3.1649526733105493e-15 12.921899912342532" fill="#ff9b0e" stroke="none" /></svg>