<?xml version="1.0" encoding="utf-8" ?>
<svg baseProfile="full" height="200mm" version="1.1" viewBox="0,0,200,200" width="200mm" xmlns="http://www.w3.org/2000/svg" xmlns:ev="http://www.w3.org/2001/xml-events" xmlns:xlink="http://www.w3.org/1999/xlink"><defs /><rect fill="#1a1a1a" height="200" width="200" x="0" y="0" /><rect fill="#1a1a1a" height="200" width="180" x="10" y="0" /><text alignment-baseline="middle" fill="#e1ed5e" style="dominant-baseline: central; font-size:9.0px; font-family:Arial;" text-anchor="middle" x="100.0" y="100.0">2025</text><line stroke="#e1ed5e" stroke-width="0.3" x1="100.0" x2="100.0" y1="15.0" y2="10.0" /><path d="M 100.0 14.0 a86.0,86.0 0 0,1 42.46469731375804,11.215312516191453" fill="none" id="id25" stroke="none" /><text fill="#e1ed5e" style="font-size:6.75px; font-family:Arial;" text-anchor="middle"><textPath startOffset="22.20632615414155" xlink:href="#id25">January</textPath></text><path d="M 100.36148047927253 79.00311137660856 l 0.05462149154782268 -3.1727339102272514 a24.173204054649624,24.173204054649624 0 0,0 0.4159786708261809,0.010743501810819029 l -0.1092267975688714 3.1713236162740723" fill="#ff2403" stroke="none" /><path d="M 100.72285384407766 79.0124445844662 l 0.023228607678186453 -0.674426365531309 a21.674826267078007,21.674826267078007 0 0,0 0.3727648672725593,0.016052039316483992 l -0.0348343073400773 0.6739265996906302" fill="#ff0100" stroke="none" /><path d="M 102.16513564639614 79.11191278185805 l 0.6161717318455525 -5.944500012073916 a26.97634905244601,26.97634905244601 0 0,0 0.46146679987535616,0.05185117182601163 l -0.718405235230634 5.933012886777303" fill="#ff4c07" stroke="none" /><path d="M 102.52436894288641 79.15227682838746 l 0.39329995536832807 -3.2481023093047283 a24.271827236668134,24.271827236668134 0 0,0 0.4143377417403634,0.05379293045071015 l -0.4491524256165376 3.2408510556898813" fill="#ff2603" stroke="none" /><path d="M 102.88285421437855 79.19881850522331 l 0.11907583683820065 -0.8591895078703315 a21.867401674746585,21.867401674746585 0 0,0 0.37240291220551147,0.0548825088250862 l -0.13384772947236792 0.8570125148842764" fill="#ff0300" stroke="none" /><path d="M 103.59715602781102 79.31037775812273 l 0.47413700732499825 -2.7270753608143874 a23.76798589687087,23.76798589687087 0 0,0 0.40247674983260595,0.07355005346526612 l -0.5210088782605051 2.7185098259983826" fill="#ff1f03" stroke="none" /><path d="M 103.95276090670814 79.375362276772 l 6.27603842464038 -32.74698923114613 a54.342974702512116,54.342974702512116 0 0,0 0.9171893163832641,0.18397954839737896 l -6.838794150490769 32.63410572667154" fill="#67ff28" stroke="none" /><path d="M 104.307194497241 79.44645832069477 l 0.4790743587108433 -2.286099410081685 a23.335757426178933,23.335757426178933 0 0,0 0.39243773916397295,0.08577168976238397 l -0.5183548220283443 2.277514222223431" fill="#ff1902" stroke="none" /><path d="M 105.01212808612495 79.60689891045804 l 0.5258635293564184 -2.1396077532726907 a23.20328250330542,23.20328250330542 0 0,0 0.3870430292494366,0.09866588602821455 l -0.5626154472908802 2.130238871075608" fill="#ff1702" stroke="none" /><path d="M 105.71112130821622 79.79150937346287 l 1.2369643676997 -4.376930812878724 a25.548362802996913,25.548362802996913 0 0,0 0.42216818160908814,0.1232424688254678 l -1.3121227670322153 4.354990015134553" fill="#ff3805" stroke="none" /><path d="M 106.0581310904928 79.89281104454417 l 0.2513835665840059 -0.8343525087354717 a21.87139991185544,21.87139991185544 0 0,0 0.3595393889936193,0.1117106383083841 l -0.26570832828834345 0.829901735544567" fill="#ff0300" stroke="none" /><path d="M 106.40334571778207 80.00007090966166 l 0.388493883398066 -1.2134047515839486 a22.274079506390482,22.274079506390482 0 0,0 0.3641463863467613,0.12005333832771471 l -0.4093230919872448 1.2065376889969976" fill="#ff0901" stroke="none" /><path d="M 107.4271985657038 80.35727306442388 l 0.67077268740829 -1.7739938710464587 a22.896573292199207,22.896573292199207 0 0,0 0.3674538411090538,0.14256638161237567 l -0.7012096935170109 1.7621847855435362" fill="#ff1202" stroke="none" /><path d="M 107.76421540070413 80.48803036053334 l 1.4252829311597792 -3.581827119056688 a24.854985985015425,24.854985985015425 0 0,0 0.39616022525424877,0.1616037028720744 l -1.4867270260024155 3.556762530001034" fill="#ff2e04" stroke="none" /><path d="M 108.43124777332544 80.76684994638697 l 1.9337968921719488 -4.4113287618024835 a25.81657470251212,25.81657470251212 0 0,0 0.40546514175365056,0.18192039007966782 l -2.00944415239238 4.377388041206284" fill="#ff3c05" stroke="none" /><path d="M 110.05341064243156 81.56283822128135 l 1.3502031151984417 -2.4761659654064054 a23.820362802996915,23.820362802996915 0 0,0 0.3582989904300601,0.19939300025224244 l -1.392626194700537 2.452557567593983" fill="#ff1f03" stroke="none" /><line stroke="#e1ed5e" stroke-width="0.3" x1="143.23703022742887" x2="145.7803849466894" y1="26.81831364943548" y2="22.513508569990506" /><path d="M 143.74570117128098 25.957352633546492 a86.0,86.0 0 0,1 28.547481713284135,27.462654790039103" fill="none" id="id26" stroke="none" /><text fill="#e1ed5e" style="font-size:6.75px; font-family:Arial;" text-anchor="middle"><textPath startOffset="19.985693538727396" xlink:href="#id26">February</textPath></text><path d="M 110.68208982089419 81.91981866633111 l 1.6200501945087153 -2.742047836844644 a24.184868752754518,24.184868752754518 0 0,0 0.3565977518762158,0.21484615550594108 l -1.6670100126025686 2.7137550718800885" fill="#ff2503" stroke="none" /><path d="M 111.2981086023043 82.29822771554956 l 1.0243201150486807 -1.6048953025000727 a22.903922432789777,22.903922432789777 0 0,0 0.3305068445721158,0.21497084535569455 l -1.0517939854050766 1.5870255329848502" fill="#ff1202" stroke="none" /><path d="M 111.60114157652 82.49532879139004 l 2.4780406535341646 -3.739053316052745 a25.48566663728515,25.48566663728515 0 0,0 0.3635898135452593,0.24549746513571408 l -2.5420351614859658 3.695843938618361" fill="#ff3705" stroke="none" /><path d="M 111.90073688211348 82.69761687909136 l 0.9129084259216758 -1.3272700250471658 a22.61091511679154,22.61091511679154 0 0,0 0.31878037483806054,0.22332602448574393 l -0.9356199403433872 1.3113591577974864" fill="#ff0e01" stroke="none" /><path d="M 112.19680574252982 82.90503203632743 l 2.215478692528546 -3.1052013184821865 a24.81452763331864,24.81452763331864 0 0,0 0.3455773728015415,0.2510766580566815 l -2.2686013816838764 3.06660542560883" fill="#ff2e04" stroke="none" /><path d="M 112.77801427241765 83.33499621200491 l 0.5868190624494195 -0.7653256359007821 a21.964406522697224,21.964406522697224 0 0,0 0.2980543240101224,0.23263612754924953 l -0.5999059416189721 0.7551111191283085" fill="#ff0500" stroke="none" /><path d="M 113.6212207817346 84.01681056812373 l 1.0910698185074628 -1.2802652472964966 a22.682115469369766,22.682115469369766 0 0,0 0.2949822092616688,0.25580566506876024 l -1.1129458264158958 1.261294588808065" fill="#ff0f01" stroke="none" /><path d="M 114.16331599549186 84.49514656593476 l 0.4292664502792328 -0.4699262092196102 a21.636474922873514,21.636474922873514 0 0,0 0.2728175229546384,0.2535541548585818 l -0.43729185702871803 0.4624674682863879" fill="#ff0000" stroke="none" /><path d="M 114.42810811169701 84.74124197986012 l 0.6540475880137162 -0.6917021831203628 a21.95196121639489,21.95196121639489 0 0,0 0.27232636821148526,0.26197775045555005 l -0.6658571998376197 0.6803413459025108" fill="#ff0500" stroke="none" /><path d="M 115.4437574822437 85.77008943001954 l 1.5224637565594537 -1.402801301871394 a23.070204671661525,23.070204671661525 0 0,0 0.26657770837468153,0.2943617637567969 l -1.546385105550171 1.3763867508450482" fill="#ff1502" stroke="none" /><path d="M 115.9244219780498 86.31012108654704 l 4.273333225755256 -3.673691547364359 a26.635369237549583,26.635369237549583 0 0,0 0.29589280709390725,0.3502437542035012 l -4.335936646336281 3.5995888435317513" fill="#ff4706" stroke="none" /><path d="M 116.15771136456269 86.58626213691792 l 5.215461415190625 -4.329748853653911 a27.77847791978845,27.77847791978845 0 0,0 0.3022582901187544,0.3705329242630751 l -5.289218197385789 4.239331759782735" fill="#ff5708" stroke="none" /><path d="M 116.38621287248628 86.86637796730983 l 8.469372022148512 -6.7882391043454025 a31.8540523578669,31.8540523578669 0 0,0 0.3392394679230072,0.4307996739548739 l -8.584965570665483 6.64144703643749" fill="#ff8e0d" stroke="none" /><path d="M 116.60985879189232 87.15038557335679 l 2.3568275887760706 -1.8232741268474992 a23.979759189070073,23.979759189070073 0 0,0 0.24975953725150124,0.3286542745390975 l -2.3878630662516853 1.782435076427368" fill="#ff2203" stroke="none" /><path d="M 117.2510076193507 88.02491185347247 l 0.6797785456612889 -0.4718801465997276 a21.82750815337153,21.82750815337153 0 0,0 0.21159745883060418,0.3104931610788792 l -0.6878004701606265 0.46010896225044196" fill="#ff0300" stroke="none" /><path d="M 117.65298651832404 88.62581576622439 l 4.216364092413665 -2.7166905687039624 a26.015788453063024,26.015788453063024 0 0,0 0.2393110662397569,0.37853263611442856 l -4.262502754899377 2.6437102848753278" fill="#ff3e05" stroke="none" /><line stroke="#e1ed5e" stroke-width="0.3" x1="172.23445277983987" x2="176.4835382374775" y1="55.19839476539836" y2="52.563006222186495" /><path d="M 173.08426987136738 54.67131705675599 a86.0,86.0 0 0,1 12.851231095245387,41.99856678651699" fill="none" id="id27" stroke="none" /><text fill="#e1ed5e" style="font-size:6.75px; font-family:Arial;" text-anchor="middle"><textPath startOffset="22.20632615414155" xlink:href="#id27">March</textPath></text><path d="M 117.84615892207809 88.93136811851018 l 1.6201323521876947 -1.0048464033048996 a22.906448303217275,22.906448303217275 0 0,0 0.2049409406451361,0.3368690208285458 l -1.6371890911190548 0.9768096092692723" fill="#ff1202" stroke="none" /><path d="M 118.03404312379186 89.2402003453031 l 3.474973331632342 -2.073301954371557 a25.04648250330542,25.04648250330542 0 0,0 0.21771395569174395,0.37214372329282075 l -3.510146961794413 2.0131788187248407" fill="#ff3104" stroke="none" /><path d="M 118.21658344932153 89.55222093294921 l 3.02443685423792 -1.734608915180567 a24.486557955046276,24.486557955046276 0 0,0 0.2065526967993541,0.36743419983678255 l -3.0538471923297075 1.6822912054089907" fill="#ff2904" stroke="none" /><path d="M 118.3937258080291 89.86733742301442 l 9.252271759238416 -5.096854698465308 a31.563259938298813,31.563259938298813 0 0,0 0.2580550520794383,0.4781368197330294 l -9.33863491053632 4.9368368953998205" fill="#ff8a0c" stroke="none" /><path d="M 118.73160827565052 90.50648371742162 l 4.008858064887234 -2.0317614351900044 a25.494329484354342,25.494329484354342 0 0,0 0.1950194646727727,0.39314734053126976 l -4.043237542513415 1.9624545061597847" fill="#ff3705" stroke="none" /><path d="M 119.47837535516314 92.15188598940014 l 0.7488290511153711 -0.3017138575700025 a21.807326575583957,21.807326575583957 0 0,0 0.1372890111013528,0.3493855584246585 l -0.7539116120984244 0.2887792942495596" fill="#ff0200" stroke="none" /><path d="M 119.85752413597 93.16781622104841 l 0.7992439048975911 -0.2749880199100917 a21.845227324812694,21.845227324812694 0 0,0 0.1192777563444714,0.3566253095105817 l -0.8038589550138325 0.261189607477196" fill="#ff0300" stroke="none" /><path d="M 120.28053869075195 94.5502522615342 l 3.105057603013053 -0.8343851663833194 a24.215210929925078,24.215210929925078 0 0,0 0.10470618937959694,0.4034756600223491 l -3.1189601242629528 0.78081308081212" fill="#ff2503" stroke="none" /><path d="M 120.37134235888165 94.90015583598534 l 3.7859837724549723 -0.9477984762545919 a24.902818862935213,24.902818862935213 0 0,0 0.10052105812490775,0.41672468198791185 l -3.8017376308406994 0.8824885626072739" fill="#ff2f04" stroke="none" /><path d="M 120.45610955862082 95.25157060432595 l 1.3301460633769038 -0.3087637289866398 a22.365512208021155,22.365512208021155 0 0,0 0.08382339754027224,0.3757638550565073 l -1.3352638479192136 0.28582170438016863" fill="#ff0b01" stroke="none" /><path d="M 120.67395015179393 96.31383870115 l 4.127906957362334 -0.7360050091908688 a25.193008373732923,25.193008373732923 0 0,0 0.07244566087596023,0.42757839140364357 l -4.1399644797585164 0.6648408294713873" fill="#ff3304" stroke="none" /><path d="M 120.78858239683441 97.02765380044208 l 3.299979281724864 -0.4718301945470013 a24.333539709122963,24.333539709122963 0 0,0 0.05571685458569757,0.4151552833533286 l -3.3076121353683976 0.4149565691290084" fill="#ff2703" stroke="none" /><path d="M 120.96714384426684 98.82574320788733 l 13.37921488109959 -0.7492977614860938 a34.400180520052885,34.400180520052885 0 0,0 0.028022045943546077,0.5915011007597589 l -13.390130535276633 0.5188855541033351" fill="#ffaf10" stroke="none" /><line stroke="#e1ed5e" stroke-width="0.3" x1="184.98032266829074" x2="189.97916517819016" y1="98.17113171792111" y2="98.06355123074" /><path d="M 185.9800911702706 98.14961562048488 a86.0,86.0 0 0,1 -9.607161424134198,41.387399972396054" fill="none" id="id28" stroke="none" /><text fill="#e1ed5e" style="font-size:6.75px; font-family:Arial;" text-anchor="middle"><textPath startOffset="21.466115282336823" xlink:href="#id28">April</textPath></text><path d="M 120.99513854157772 99.54816195383933 l 0.9014571982506026 -0.01940033205060306 a21.90166593212869,21.90166593212869 0 0,0 0.004867377095972209,0.3769837201208057 l -0.9016575824642903 0.0038803538693346217" fill="#ff0400" stroke="none" /><path d="M 120.89721153311464 102.0752229133903 l 0.847651842856745 0.08417709339288337 a21.851821242838255,21.851821242838255 0 0,0 -0.04039225755511453,0.3739821394377199 l -0.8460772838005786 -0.09875555471539467" fill="#ff0300" stroke="none" /><path d="M 120.81339534386255 102.79330883721812 l 0.8513471499529682 0.11425697144629154 a21.858979991185546,21.858979991185546 0 0,0 -0.053258831193244364,0.3724921413207324 l -0.8492542677431225 -0.12889458474743323" fill="#ff0300" stroke="none" /><path d="M 120.70491114924044 103.5080841355445 l 0.8597933683646148 0.14567690987251222 a21.87204724548259,21.87204724548259 0 0,0 -0.06608853385958183,0.3706595951306864 l -0.8571583921658442 -0.160455255736417" fill="#ff0300" stroke="none" /><path d="M 120.64145759157962 103.86396538481128 l 0.7322351419801705 0.13707032217084977 a21.744954076685765,21.744954076685765 0 0,0 -0.0720379958360064,0.36732018877343836 l -0.7297672131684999 -0.14965423801223304" fill="#ff0200" stroke="none" /><path d="M 119.67450827220406 107.3425965602758 l 1.2885865211137448 0.48090507913301905 a22.375399911855443,22.375399911855443 0 0,0 -0.13777462880885016,0.35968608061553087 l -1.280117612711388 -0.5030147265816938" fill="#ff0b01" stroke="none" /><line stroke="#e1ed5e" stroke-width="0.3" x1="174.80103733775053" x2="179.2010983576182" y1="140.37084112569926" y2="142.7455964860345" /><path d="M 175.68104954172406 140.8457921977663 a86.0,86.0 0 0,1 -30.038265399797805,32.042727171017184" fill="none" id="id29" stroke="none" /><text fill="#e1ed5e" style="font-size:6.75px; font-family:Arial;" text-anchor="middle"><textPath startOffset="22.206326154141568" xlink:href="#id29">May</textPath></text><path d="M 118.48025628344425 109.97397251340804 l 10.549622603192566 5.693733044456474 a32.98804125165271,32.98804125165271 0 0,0 -0.2739948857273802,0.49738030478964856 l -10.450051308013675 -5.874483867643928" fill="#ff9d0e" stroke="none" /><path d="M 118.30583269289576 110.29060199501025 l 12.329401878037869 6.930958547035052 a35.143985896870866,35.143985896870866 0 0,0 -0.3009797957524357,0.5247836435568555 l -12.208270086133055 -7.142162036450222" fill="#ffb911" stroke="none" /><path d="M 118.12598468904814 110.60418214915192 l 6.334834788508855 3.706046492620086 a28.339271925958574,28.339271925958574 0 0,0 -0.24995119664170767,0.4189325827374711 l -6.27010271616892 -3.814541169243661" fill="#ff5f08" stroke="none" /><path d="M 115.07121518719521 114.62390073753431 l 0.9114487947380802 0.8843969471631922 a22.2699987659762,22.2699987659762 0 0,0 -0.2693178555533957,0.2728175657898212 l -0.8960903141291489 -0.899955006933678" fill="#ff0901" stroke="none" /><path d="M 112.92097659922987 116.55440617244103 l 2.5612361200742635 3.28146581720173 a25.16268523578669,25.16268523578669 0 0,0 -0.3437357861003867,0.2635619431359202 l -2.504371605480383 -3.325067102165022" fill="#ff3204" stroke="none" /><path d="M 112.04921762599082 117.19931262002967 l 0.6776195357306435 0.9672487122592189 a22.180990392243277,22.180990392243277 0 0,0 -0.3145931085988396,0.21638000870739946 l -0.6608695425089206 -0.9787695103317124" fill="#ff0801" stroke="none" /><path d="M 111.45004920935366 117.60387380957326 l 2.992317205733024 4.600536951833108 a26.488069105332745,26.488069105332745 0 0,0 -0.3843522230968271,0.24531177377643149 l -2.912683180589266 -4.651363154433349" fill="#ff4506" stroke="none" /><path d="M 111.1453310114006 117.79835938074945 l 2.7274608731718977 4.355575331768071 a26.13907377699427,26.13907377699427 0 0,0 -0.3833989722770564,0.2355149630967249 l -2.6520827009625325 -4.401878761693173" fill="#ff4006" stroke="none" /><line stroke="#e1ed5e" stroke-width="0.3" x1="143.8653032363475" x2="146.44561519142675" y1="172.8068346515853" y2="177.08958963109032" /><path d="M 144.38136562736335 173.6633856474863 a86.0,86.0 0 0,1 -40.68145358897372,12.25698825130547" fill="none" id="id30" stroke="none" /><text fill="#e1ed5e" style="font-size:6.75px; font-family:Arial;" text-anchor="middle"><textPath startOffset="21.466115282336833" xlink:href="#id30">June</textPath></text><path d="M 110.8373102113329 117.98757091392108 l 2.9667944230857164 4.924231569607929 a26.748906478624946,26.748906478624946 0 0,0 -0.39643424338119737,0.2342203387081204 l -2.881592308676137 -4.974570480609799" fill="#ff4906" stroke="none" /><path d="M 110.21172684928248 118.3499491758327 l 0.31169459022427476 0.5600991853203866 a21.640987219039225,21.640987219039225 0 0,0 -0.32706455580786575,0.17834167349533644 l -0.3020072225477603 -0.5653815105754936" fill="#ff0000" stroke="none" /><path d="M 109.89434966115114 118.52300852407294 l 0.7348254348459834 1.3756515849445106 a22.559610753635962,22.559610753635962 0 0,0 -0.3440975504690809,0.18001557535084733 l -0.7110369818504069 -1.3880965792400746" fill="#ff0d01" stroke="none" /><path d="M 108.59647513512805 119.15986991738527 l 1.8821867295395147 4.195027884259535 a25.597921903922433,25.597921903922433 0 0,0 -0.4035687006721022,0.17691265858378327 l -1.8096973542096588 -4.226805096137774" fill="#ff3905" stroke="none" /><path d="M 108.2653958097858 119.30500536409082 l 1.7518313613379346 4.091650854466192 a25.450901013662406,25.450901013662406 0 0,0 -0.4042191366457814,0.1689636319010793 l -1.6811407651946921 -4.121199529387244" fill="#ff3705" stroke="none" /><path d="M 107.59598834532513 119.57807347666477 l 1.6091829904711625 4.147544913524363 a25.44877496694579,25.44877496694579 0 0,0 -0.40976136483308695,0.15493668629364696 l -1.537551404877801 -4.17462984992464" fill="#ff3605" stroke="none" /><path d="M 106.91757812671514 119.82793768551818 l 0.22461610929985149 0.6438198653891976 a21.68187712648744,21.68187712648744 0 0,0 -0.35344584700631787,0.11990802132915039 l -0.21350052935630667 -0.6475908736164709" fill="#ff0100" stroke="none" /><path d="M 106.2309692047433 120.05430185196036 l 1.7955171531065284 5.778851056005859 a27.05136359629793,27.05136359629793 0 0,0 -0.4458644721997535,0.1343353079917496 l -1.695777706466529 -5.808901733103334" fill="#ff4d07" stroke="none" /><path d="M 105.53697534728816 120.25689768951611 l 1.5823449131967693 5.788972680156864 a27.001334861172325,27.001334861172325 0 0,0 -0.44939164718222935,0.11868841847794843 l -1.4824628232030426 -5.815352447938397" fill="#ff4c07" stroke="none" /><path d="M 104.13013068566511 120.58985236759428 l 2.7402495276477903 13.66090749149067 a34.93303129131776,34.93303129131776 0 0,0 -0.5905884490284685,0.11318768186866146 l -2.5046934640476177 -13.7060523717078" fill="#ffb610" stroke="none" /><path d="M 103.06178313531738 120.77559828337769 l 0.18655737848308335 1.2658770986936108 a22.279550110180697,22.279550110180697 0 0,0 -0.3798890426512385,0.05264915975462149 l -0.16473974464501437 -1.2689008239408348" fill="#ff0901" stroke="none" /><path d="M 101.98527174616119 120.90594882070398 l 0.06748389016779133 0.7106406247899653 a21.71383763772587,21.71383763772587 0 0,0 -0.372398190898312,0.03213208288057297 l -0.05524138152793766 -0.7116969599492017" fill="#ff0100" stroke="none" /><path d="M 101.26447882468166 120.96189622390904 l 0.7942035856189671 13.165909003333796 a34.18984151608638,34.18984151608638 0 0,0 -0.5877590822075882,0.030380430926660193 l -0.5674564349978993 -13.177629241022657" fill="#ffac0f" stroke="none" /><path d="M 100.90346689309514 120.98055641714683 l 0.35394778273963473 8.219472657213256 a29.22708999559277,29.22708999559277 0 0,0 -0.502816799770526,0.01731802724923136 l -0.2124106312944565 -8.22434748288858" fill="#ff6b09" stroke="none" /><line stroke="#e1ed5e" stroke-width="0.3" x1="102.19456741930631" x2="102.32365962044197" y1="184.97166512339345" y2="189.96999836594603" /><path d="M 102.22038585953345 185.97133177190398 a86.0,86.0 0 0,1 -42.740103519485714,-10.115201625700543" fill="none" id="id31" stroke="none" /><text fill="#e1ed5e" style="font-size:6.75px; font-family:Arial;" text-anchor="middle"><textPath startOffset="22.20632615414155" xlink:href="#id31">July</textPath></text><path d="M 100.54218724476979 120.99299961872073 l 0.3264901319902496 12.641402545900007 a33.64561798148964,33.64561798148964 0 0,0 -0.5790896474753545,0.009969553445073028 l -0.1088407946222272 -12.64514957662424" fill="#ffa50f" stroke="none" /><path d="M 100.18074693466247 120.99922214144158 l 0.022958809527060548 2.6673599873885734 a23.66745879241957,23.66745879241957 0 0,0 -0.40741148837903013,0.0 l 0.022958809527058713 -2.6673599873885734" fill="#ff1d03" stroke="none" /><path d="M 98.37488393609728 120.93702456842531 l -0.31706369450042526 4.084859234957685 a25.097145879241957,25.097145879241957 0 0,0 -0.4304228427084973,-0.03713869399375739 l 0.3873308549504642 -4.078796288685265" fill="#ff3204" stroke="none" /><path d="M 97.65516085044442 120.86867818915974 l -0.28990060005940116 2.5800670935703933 a23.596302864698103,23.596302864698103 0 0,0 -0.40324123883400437,-0.04882689833438088 l 0.3342692619447949 -2.5746946665106636" fill="#ff1c02" stroke="none" /><path d="M 96.93821686468263 120.77559828337769 l -0.5771871619712159 3.9164787581188016 a24.958781489643016,24.958781489643016 0 0,0 -0.42449436362533693,-0.06629728943076249 l 0.64451738920507 -3.9059631613409334" fill="#ff3004" stroke="none" /><path d="M 96.58105272829116 120.7198165907248 l -0.1397529084821323 0.8469433429790316 a21.858396121639487,21.858396121639487 0 0,0 -0.3707090600330123,-0.06445252186204012 l 0.1543109399871945 -0.8444122425959854" fill="#ff0300" stroke="none" /><path d="M 96.22490169976321 120.6578951692458 l -1.7807542028046814 9.744549868125429 a30.90592437197003,30.90592437197003 0 0,0 -0.522504954935586,-0.10013931818567626 l 1.9482267723119626 -9.712453351591284" fill="#ff810b" stroke="none" /><path d="M 94.46302465271185 120.25689768951611 l -1.008317827731161 3.6889077147271427 a24.824231291317762,24.824231291317762 0 0,0 -0.4112179210481715,-0.11621429203300405 l 1.0716669168839466 -3.6710046293556173" fill="#ff2e04" stroke="none" /><path d="M 93.08242187328487 119.8279376855182 l -0.9536196991676849 2.7333716547063043 a23.8949457910974,23.8949457910974 0 0,0 -0.38718965012016604,-0.13883243298517642 l 1.0005289099175776 -2.71655168068117" fill="#ff2003" stroke="none" /><path d="M 92.40401165467489 119.57807347666478 l -0.8262078521214339 2.129486947644664 a23.284148435434112,23.284148435434112 0 0,0 -0.37241212960834585,-0.14819047208158653 l 0.8627410577716379 -2.114949631157011" fill="#ff1802" stroke="none" /><path d="M 92.06813273071674 119.44442032107085 l -1.2580833405908964 3.084103710121316 a24.3308361392684,24.3308361392684 0 0,0 -0.3864299174636471,-0.1615277368401993 l 1.310984717552006 -3.0619909302611434" fill="#ff2703" stroke="none" /><path d="M 91.40352486487194 119.15986991738527 l -1.0623911822780254 2.3678631687824807 a23.595274746584398,23.595274746584398 0 0,0 -0.36913347156732224,-0.16945107194308687 l 1.1029926496127669 -2.3492250265053194" fill="#ff1c02" stroke="none" /><path d="M 90.7491055286396 118.85261126421891 l -2.9548802557597496 6.0218186432259975 a27.707728162185987,27.707728162185987 0 0,0 -0.42636400393327284,-0.21378776274367287 l 3.0580981673757828 -5.970063039573023" fill="#ff5607" stroke="none" /><line stroke="#e1ed5e" stroke-width="0.3" x1="58.666819895761336" x2="56.23545636021788" y1="174.27360380694188" y2="178.64263932499728" /><path d="M 58.180547188652646 175.14741091055294 a86.0,86.0 0 0,1 -31.652253787137756,-30.449443065178592" fill="none" id="id32" stroke="none" /><text fill="#e1ed5e" style="font-size:6.75px; font-family:Arial;" text-anchor="middle"><textPath startOffset="22.20632615414155" xlink:href="#id32">August</textPath></text><path d="M 89.7882731507175 118.34994917583269 l -2.1975147549522736 3.9488212583114635 a25.519099515204935,25.519099515204935 0 0,0 -0.3819981142697664,-0.21690849882075208 l 2.265161636143247 -3.9104095936960785" fill="#ff3705" stroke="none" /><path d="M 89.4739219176387 118.17145234162733 l -2.1070871548783883 3.6375213555264185 a25.203733803437636,25.203733803437636 0 0,0 -0.3735338918894204,-0.2206904073954476 l 2.1693889177961907 -3.6007123758372215" fill="#ff3304" stroke="none" /><path d="M 89.1626897886671 117.98757091392108 l -4.261825086396241 7.073699974382448 a29.258352401939177,29.258352401939177 0 0,0 -0.4291514816908458,-0.2636198912403103 l 4.382955768019396 -6.9992916163137595" fill="#ff6b09" stroke="none" /><path d="M 88.54995079064634 117.60387380957326 l -1.7753682294570166 2.729539210307988 a24.25611987659762,24.25611987659762 0 0,0 -0.34804679186739895,-0.2306664352382262 l 1.8220897200643773 -2.6985747539784435" fill="#ff2603" stroke="none" /><path d="M 88.24862548938628 117.40417183066458 l -2.137850181585557 3.1662263741936822 a24.820391714411635,24.820391714411635 0 0,0 -0.35202775205240777,-0.24212789782206437 l 2.192034818260855 -3.1289576870065168" fill="#ff2e04" stroke="none" /><path d="M 87.95078237400918 117.19931262002967 l -2.48020737543086 3.5403013985342366 a25.32263375936536,25.32263375936536 0 0,0 -0.3548456715367824,-0.25317296490457364 l 2.540780374816529 -3.4970841717854437" fill="#ff3505" stroke="none" /><path d="M 87.65650970185807 116.9893568818739 l -1.2570113764669695 1.7301277323957214 a23.138555486998676,23.138555486998676 0 0,0 -0.32021009463456246,-0.23688377286845705 l 1.2866064415200962 -1.7082340107874976" fill="#ff1602" stroke="none" /><path d="M 87.36589467227662 116.77436683061367 l -0.49734482154109716 0.6603272856630343 a21.826670427501103,21.826670427501103 0 0,0 -0.29816403325194535,-0.2286194663309663 l 0.5086375832865293 -0.6516684775047012" fill="#ff0300" stroke="none" /><path d="M 87.07902340077011 116.55440617244103 l -3.494537548154662 4.47721528730626 a26.679546584398413,26.679546584398413 0 0,0 -0.35959265516248434,-0.28568215316911694 l 3.571087696034504 -4.416399220132012" fill="#ff4806" stroke="none" /><path d="M 86.51685102203217 116.09983520530335 l -4.020710169873193 4.801012823415533 a27.262254737769943,27.262254737769943 0 0,0 -0.3571803554624388,-0.3043968477874208 l 4.102756001912688 -4.731091585405161" fill="#ff5007" stroke="none" /><path d="M 85.97065885151581 115.62618273729859 l -3.792841344915649 4.224548488910106 a26.677363420008817,26.677363420008817 0 0,0 -0.3390571578969907,-0.30972067477127757 l 3.8649980522794944 -4.158635047552252" fill="#ff4806" stroke="none" /><path d="M 85.70375840098266 115.38237550388516 l -2.301088772081797 2.4759102813685803 a24.380109651829,24.380109651829 0 0,0 -0.30494195995990736,-0.2883416566595499 l 2.3433665664325214 -2.4359339879630997" fill="#ff2703" stroke="none" /><path d="M 85.44109423537348 115.13401014063109 l -5.960717226134822 6.1961768558828885 a29.597834464521817,29.597834464521817 0 0,0 -0.3641239020705986,-0.3563718760985315 l 6.066491080581215 -6.092654876861788" fill="#ff700a" stroke="none" /><path d="M 85.18274418774928 114.88116024355367 l -1.6549412887479693 1.6620787832501391 a23.3454928162186,23.3454928162186 0 0,0 -0.2823241315894007,-0.28599285474658753 l 1.6833060453929032 -1.6333454345228868" fill="#ff1902" stroke="none" /><path d="M 84.67929136418377 114.36230785411682 l -4.259076360371472 3.992645987591262 a26.83788946672543,26.83788946672543 0 0,0 -0.31304940127085634,-0.33975329707186563 l 4.327172169638057 -3.9187414357180526" fill="#ff4a06" stroke="none" /><path d="M 84.19399662182784 113.82643327865904 l -3.8319030476287246 3.3519891493567204 a26.091101278096076,26.091101278096076 0 0,0 -0.29278873570146513,-0.34057944611533336 l 3.8890342929009685 -3.2855326040798567" fill="#ff3f06" stroke="none" /><path d="M 83.50135304334701 112.99209946851258 l -3.508108247665979 2.7625108543586854 a25.465231203173204,25.465231203173204 0 0,0 -0.2682255019098875,-0.346717618380051 l 3.5551405667939346 -2.7017152418653816" fill="#ff3705" stroke="none" /><path d="M 83.06392112726016 112.41649034213515 l -3.0185447521196513 2.2130111723985544 a24.742863992948436,24.742863992948436 0 0,0 -0.2488663271339369,-0.34565356192495894 l 3.056190871629196 -2.160724005022457" fill="#ff2d04" stroke="none" /><path d="M 82.44556493220864 111.52570212397912 l -7.4353119984794525 4.881797161935337 a29.894706743058617,29.894706743058617 0 0,0 -0.2787256281457293,-0.4325883645665783 l 7.518242490002228 -4.75308719744731" fill="#ff740a" stroke="none" /><path d="M 82.24976979558568 111.22182372390057 l -9.479605936302484 5.993075332779204 a32.21516297928603,32.21516297928603 0 0,0 -0.2922917945911329,-0.47126744061440917 l 9.581362370561571 -5.829011560799531" fill="#ff930d" stroke="none" /><path d="M 82.05923443525364 110.91462005526583 l -1.8469353404177136 1.12361969362746 a23.161872190392245,23.161872190392245 0 0,0 -0.2042867468711394,-0.3423963383077563 l 1.8660029629870847 -1.0916612614335928" fill="#ff1602" stroke="none" /><line stroke="#e1ed5e" stroke-width="0.3" x1="26.63291911575756" x2="22.317208475507996" y1="142.92168965132927" y2="145.44649492493687" /><path d="M 25.769776987707644 143.4266507060508 a86.0,86.0 0 0,1 -11.730757126820373,-40.83630448921669" fill="none" id="id33" stroke="none" /><text fill="#e1ed5e" style="font-size:6.75px; font-family:Arial;" text-anchor="middle"><textPath startOffset="21.46611528233685" xlink:href="#id33">September</textPath></text><path d="M 80.87730276802145 108.67885076344099 l -3.6695698689384537 1.6654370914411758 a25.0298168356104,25.0298168356104 0 0,0 -0.17468299070484805,-0.3938640290766945 l 3.6976939443745818 -1.6020247258717855" fill="#ff3104" stroke="none" /><path d="M 80.73074385275274 108.34839909993369 l -3.3369600755697326 1.445736891892464 a24.63668223887175,24.63668223887175 0 0,0 -0.16524059619152442,-0.39057995811373797 l 3.3613516529535636 -1.3880824081125673" fill="#ff2b04" stroke="none" /><path d="M 80.58989483394504 108.01547362559985 l -1.9932241027846052 0.8231091531497934 a23.156490436315558,23.156490436315558 0 0,0 -0.14897053909143015,-0.36973266103993513 l 2.0070972561334233 -0.7886771242670528" fill="#ff1602" stroke="none" /><path d="M 80.32549172779594 107.34259656027581 l -3.0459126585637097 1.1367454525543266 a24.25111890700749,24.25111890700749 0 0,0 -0.14259165849966307,-0.3923510035105905 l 3.065028578068597 -1.084146652037619" fill="#ff2603" stroke="none" /><path d="M 80.20201598880116 107.00284435728193 l -5.5933150250051025 1.9784395491581865 a26.93290788893786,26.93290788893786 0 0,0 -0.1508360436714547,-0.4384001476962181 l 5.626541899619785 -1.8818666983726717" fill="#ff4b07" stroke="none" /><path d="M 79.97269907076064 106.31721596034903 l -14.039127107426 4.428364967688565 a35.720988629352135,35.720988629352135 0 0,0 -0.17992020269516162,-0.587989632521049 l 14.113274082627292 -4.186048362615469" fill="#ffc011" stroke="none" /><path d="M 79.86692584326677 105.97154293290107 l -2.44341569274496 0.7247259707366155 a23.54862864698105,23.54862864698105 0 0,0 -0.11192031096207283,-0.3896092850243756 l 2.455528640593137 -0.682559210207644" fill="#ff1c02" stroke="none" /><path d="M 79.67330655649465 105.27499134158121 l -4.935719946505123 1.280871384942494 a26.099211987659764,26.099211987659764 0 0,0 -0.10910550087291923,-0.43582224084467336 l 4.957036761673101 -1.1957213047004287" fill="#ff4006" stroke="none" /><path d="M 79.50377843672027 104.57218783832718 l -4.397377553621327 0.9809435416731078 a25.50546108417805,25.50546108417805 0 0,0 -0.0918997728909857,-0.42932514393694143 l 4.413611365236753 -0.9051045783200027" fill="#ff3705" stroke="none" /><path d="M 79.35854240842038 103.8639653848113 l -13.732113108121169 2.570574751065005 a34.97064010577347,34.97064010577347 0 0,0 -0.1056672156374846,-0.5926378613572306 l 13.774326766097843 -2.3338181389745607" fill="#ffb610" stroke="none" /><path d="M 79.23777060512086 103.15116336523772 l -5.9561932833369315 0.9039943502095952 a27.024404054649626,27.024404054649626 0 0,0 -0.0658442513889056,-0.4605145408565519 l 5.970871585742437 -0.8013343373726427" fill="#ff4c07" stroke="none" /><path d="M 79.18660465613746 102.79330883721812 l -4.197118993916956 0.5632838555589827 a25.234748699867783,25.234748699867783 0 0,0 -0.05407264790614818,-0.431012206364832 l 4.206193151069953 -0.4909538949067421" fill="#ff3304" stroke="none" /><path d="M 79.07016306316243 101.71520430193888 l -8.39814431227447 0.6882295975925166 a29.426297399735567,29.426297399735567 0 0,0 -0.03702590681274925,-0.5051890812400092 l 8.408746777751555 -0.5435673798557468" fill="#ff6d0a" stroke="none" /><path d="M 79.04373962182676 101.35467743843564 l -13.690272213948331 0.8849815071774181 a34.71884636403702,34.71884636403702 0 0,0 -0.03341878942820679,-0.5967149347135959 l 13.70347735426407 -0.6491948561283846" fill="#ffb310" stroke="none" /><path d="M 79.0235259727143 100.99374915477108 l -0.6378348404898943 0.03021708189831541 a21.63855019832525,21.63855019832525 0 0,0 -0.014423502427084671,-0.3722065082507083 l 0.6382604757681797 -0.019233326633610374" fill="#ff0000" stroke="none" /><line stroke="#e1ed5e" stroke-width="0.3" x1="15.007084014347285" x2="10.007500721073583" y1="101.09737516637583" y2="101.16192664675087" /><path d="M 14.007167355692545 101.11028546245083 a86.0,86.0 0 0,1 10.666146001902534,-42.60595125391555" fill="none" id="id34" stroke="none" /><text fill="#e1ed5e" style="font-size:6.75px; font-family:Arial;" text-anchor="middle"><textPath startOffset="22.20632615414155" xlink:href="#id34">October</textPath></text><path d="M 79.00175016825051 100.2711162175752 l -0.7045956583473061 0.009097296743378966 a21.704654385191713,21.704654385191713 0 0,0 -0.0016079042694020502,-0.37362032567199227 l 0.7046478599062111 0.003032507132288681" fill="#ff0100" stroke="none" /><path d="M 79.00019446554 99.90962569577889 l -5.494834263556061 -0.023647448666339305 a26.494885147642133,26.494885147642133 0 0,0 0.005888163828618561,-0.4560447775107024 l 5.493613092609727 0.11822848423751366" fill="#ff4506" stroke="none" /><path d="M 79.01574976396665 99.18683210126434 l -4.189032908643643 -0.162330655121856 a25.192176994270604,25.192176994270604 0 0,0 0.02052129757690626,-0.43317215774373624 l 4.185618002833238 0.23441391948860132" fill="#ff3304" stroke="none" /><path d="M 79.03285615573316 98.82574320788736 l -4.236138747137061 -0.23724331425891346 a25.242776906126046,25.242776906126046 0 0,0 0.02803079232658605,-0.4336239505699226 l 4.231427363806063 0.31012632908184784" fill="#ff3404" stroke="none" /><path d="M 79.05617556472873 98.46500227214037 l -0.6805024764592342 -0.04987483343341197 a21.6823277214632,21.6823277214632 0 0,0 0.030484853236715653,-0.37199242478967487 l 0.6795431394030216 0.06158117543086522" fill="#ff0100" stroke="none" /><path d="M 79.08570108090925 98.10471618934814 l -3.276393538404687 -0.2969114888663316 a24.289819303658,24.289819303658 0 0,0 0.041319150580283355,-0.41607820753779323 l 3.270797262142175 0.3532652271085552" fill="#ff2603" stroke="none" /><path d="M 79.16333360222342 97.38593545837743 l -0.7390907123662067 -0.09272264513699863 a21.74488426619656,21.74488426619656 0 0,0 0.04978957312109948,-0.3709901517383336 l 0.7373851401872734 0.10543113893999165" fill="#ff0200" stroke="none" /><path d="M 79.21141760316559 97.0276538004421 l -12.088847957962834 -1.7284603922947501 a33.21179021595417,33.21179021595417 0 0,0 0.08578780416884561,-0.5652344429633168 l 12.057304260354687 1.936293947650159" fill="#ffa00e" stroke="none" /><path d="M 79.26566170972629 96.67025291283419 l -30.08431836951594 -4.8312692721549215 a51.46977805200528,51.46977805200528 0 0,0 0.14800781354894668,-0.8735504938078458 l 29.996698694446774 5.348405554278595" fill="#86ff25" stroke="none" /><path d="M 79.46518482838121 95.60439243477599 l -5.086070468696114 -1.0887056758300817 a26.20128761568973,26.20128761568973 0 0,0 0.0981994477680372,-0.4402088693674112 l 5.066576633926039 1.176092714747452" fill="#ff4106" stroke="none" /><path d="M 79.54389044137918 95.25157060432595 l -4.2919547796423 -0.9962815354578726 a25.406069986778316,25.406069986778316 0 0,0 0.10255244805509317,-0.4251461047070883 l 4.274169531326391 1.0700128718243578" fill="#ff3605" stroke="none" /><path d="M 79.81627453868168 94.20196356495316 l -3.2784724026112664 -0.9417836403921304 a24.41106108417805,24.41106108417805 0 0,0 0.11949110117616214,-0.4028645909576799 l 3.261775404323397 0.9980776180963494" fill="#ff2803" stroke="none" /><path d="M 79.91906864156998 93.8553929516997 l -6.640930761855057 -2.0320725786176492 a27.94487439400617,27.94487439400617 0 0,0 0.14470723081592898,-0.4587614665032561 l 6.6049680472709245 2.1460842115473198" fill="#ff5908" stroke="none" /><path d="M 80.14247586403 93.16781622104843 l -3.173409140527628 -1.0918437920775774 a24.35598695460555,24.35598695460555 0 0,0 0.13981139005781754,-0.39526562689771755 l 3.1541446696600013 1.1463070454019062" fill="#ff2703" stroke="none" /><path d="M 80.38941819471856 92.48833698450439 l -2.778248150729785 -1.0641838212105263 a23.97508823270163,23.97508823270163 0 0,0 0.15093625269136773,-0.3841162996954446 l 2.759518348156726 1.1118491258017342" fill="#ff2203" stroke="none" /><path d="M 80.803312248108 91.48605970444005 l -19.90123459521728 -8.826414501372108 a42.770731070956366,42.770731070956366 0 0,0 0.3042784820849746,-0.6704373016330207 l 19.74635379616895 9.1676738118472" fill="#e8ff1a" stroke="none" /><path d="M 81.10775173730289 90.83032412892265 l -2.913245344744765 -1.4139934629686453 a24.238267430586163,24.238267430586163 0 0,0 0.18541118886100372,-0.3737776427996782 l 2.888474142930349 1.463930694267285" fill="#ff2503" stroke="none" /><path d="M 81.26839172434947 90.50648371742162 l -4.013896245996191 -2.0343148760739127 a25.499977787571616,25.499977787571616 0 0,0 0.20180265537719183,-0.3898184976936204 l 3.9782841574588854 2.1031060960278687" fill="#ff3705" stroke="none" /><path d="M 81.6062741919709 89.86733742301443 l -3.1209859707396435 -1.7192763488518628 a24.56320987219039,24.56320987219039 0 0,0 0.20719928258042183,-0.36858440379332785 l 3.090929046866791 1.7727442625799752" fill="#ff2a04" stroke="none" /><line stroke="#e1ed5e" stroke-width="0.3" x1="26.266209847984243" x2="21.928928074336255" y1="57.711370442889674" y2="55.22380399835377" /><path d="M 25.398753493254645 57.213857153982495 a86.0,86.0 0 0,1 29.58750427330803,-30.492523968695096" fill="none" id="id35" stroke="none" /><text fill="#e1ed5e" style="font-size:6.75px; font-family:Arial;" text-anchor="middle"><textPath startOffset="21.46611528233685" xlink:href="#id35">November</textPath></text><path d="M 81.78341655067845 89.55222093294921 l -6.617905503020079 -3.795575321493588 a28.62909334508594,28.62909334508594 0 0,0 0.24885542946816386,-0.4253745966337619 l 6.55159039908159 3.908929330481242" fill="#ff6209" stroke="none" /><path d="M 81.96595687620814 89.24020034530311 l -9.03748020337561 -5.392106235086166 a31.523823358307624,31.523823358307624 0 0,0 0.2820394469829493,-0.4635986935606183 l 8.943324958106444 5.546872701853858" fill="#ff890c" stroke="none" /><path d="M 82.34701348167596 88.62581576622439 l -4.913183031130298 -3.165665419408114 a26.844724548259144,26.844724548259144 0 0,0 0.25362303206021186,-0.38628527790377126 l 4.857963363712166 3.2497687612895523" fill="#ff4a06" stroke="none" /><path d="M 82.54541684631803 88.32363383020206 l -6.303278016846081 -4.216622164317179 a28.5836149845747,28.5836149845747 0 0,0 0.27709165207637115,-0.40659780810807233 l 6.22976189910097 4.324497995695666" fill="#ff6209" stroke="none" /><path d="M 82.95767976084542 87.72973835380427 l -2.4189841235084915 -1.7416389140047672 a23.980736535918908,23.980736535918908 0 0,0 0.24407523700886516,-0.3329183489828267 l 2.388646273985993 1.7830197066590945" fill="#ff2203" stroke="none" /><path d="M 83.17141714833178 87.43820079747576 l -0.7390073549610688 -0.5516365866356506 a21.922190215954164,21.922190215954164 0 0,0 0.22832906872441974,-0.3004542900087435 l 0.7294023460125403 0.5642756525254207" fill="#ff0400" stroke="none" /><path d="M 83.39014120810768 87.1503855733568 l -12.187026210234537 -9.428050519330615 a36.40817135301895,36.40817135301895 0 0,0 0.38773995029229374,-0.4923903612627686 l 12.022932179348272 9.63643327454643" fill="#ffc912" stroke="none" /><path d="M 83.84228863543731 86.58626213691792 l -2.2459159793577808 -1.864504664669624 a23.918992331423535,23.918992331423535 0 0,0 0.26571652604780843,-0.3145245555339246 l 2.213488839822848 1.9028881698326645" fill="#ff2103" stroke="none" /><path d="M 84.31358615837235 86.03803664274999 l -2.9974748766538823 -2.6679542446507654 a25.012833847509917,25.012833847509917 0 0,0 0.28902491425297716,-0.3191485291395233 l 2.9511063217848603 2.7191555610598446" fill="#ff3004" stroke="none" /><path d="M 85.05521093208273 85.24692304244772 l -19.161981026041836 -18.91617067672332 a47.92588029969149,47.92588029969149 0 0,0 0.5846140370594094,-0.5821035185945472 l 18.833531188815115 19.243210045967974" fill="#acff20" stroke="none" /><path d="M 85.83668400450813 84.49514656593479 l -1.1157914379965952 -1.221478269257613 a22.654388012340238,22.654388012340238 0 0,0 0.2901800694312888,-0.26052653146216836 l 1.094600380969335 1.2405038094890601" fill="#ff0f01" stroke="none" /><path d="M 86.65592168130627 83.78471172551755 l -0.7910246629584061 -0.9612273426278493 a22.244860643455265,22.244860643455265 0 0,0 0.2977597488705512,-0.24076767578411465 l 0.7743615155233544 0.9747011156760983" fill="#ff0901" stroke="none" /><path d="M 87.51073957382395 83.11751280151077 l -2.7108641553474486 -3.66443871276606 a25.558168003525783,25.558168003525783 0 0,0 0.35593361609752533,-0.2586009092415864 l 2.647385222896142 3.7105588568243144" fill="#ff3805" stroke="none" /><path d="M 87.80319425747018 82.90503203632743 l -2.3415028809071954 -3.2818360463329848 a25.031511326575583,25.031511326575583 0 0,0 0.3529071920456159,-0.24723404084084888 l 2.2846645492779194 3.3216549299377762" fill="#ff3104" stroke="none" /><path d="M 88.39885842347998 82.49532879139004 l -1.6120495816308476 -2.4323811335547765 a23.918078448655795,23.918078448655795 0 0,0 0.34514125951528135,-0.22448947591746177 l 1.569941296331279 2.4597695336317735" fill="#ff2103" stroke="none" /><path d="M 88.70189139769569 82.29822771554957 l -0.774170899752644 -1.2129638206765294 a22.438965535478186,22.438965535478186 0 0,0 0.3273747276499928,-0.2050020244210112 l 0.753177019730409 1.2261101864204706" fill="#ff0c01" stroke="none" /><path d="M 89.00827224532344 82.1063720568725 l -3.3755359947760084 -5.495094724617659 a27.449054914059058,27.449054914059058 0 0,0 0.4047270784698824,-0.24384353625591743 l 3.280446850088477 5.5523848703321965" fill="#ff5207" stroke="none" /><line stroke="#e1ed5e" stroke-width="0.3" x1="56.762969772571076" x2="54.21961505331055" y1="26.818313649435495" y2="22.513508569990535" /><path d="M 56.25429882871897 25.957352633546506 a86.0,86.0 0 0,1 42.265352541879196,-11.944610805530505" fill="none" id="id36" stroke="none" /><text fill="#e1ed5e" style="font-size:6.75px; font-family:Arial;" text-anchor="middle"><textPath startOffset="22.20632615414155" xlink:href="#id36">December</textPath></text><path d="M 89.94658935756843 81.56283822128135 l -2.6428589203990396 -4.846794705477331 a26.520518289995593,26.520518289995593 0 0,0 0.402676125019132,-0.21509564042789026 l 2.559037748851602 4.891569072406971" fill="#ff4506" stroke="none" /><path d="M 90.91171255644093 81.06846463323043 l -27.264862330677197 -56.79460610030868 a84.0,84.0 0 0,0 1.3088871548015661,-0.6145400694399696 l 26.28319696457602 57.25551115238866" fill="#4dd2ff" stroke="none" /><path d="M 92.23578459929587 80.48803036053334 l -1.7929486183676273 -4.505794494513913 a25.849417364477745,25.849417364477745 0 0,0 0.41484232508469987,-0.16095237717065414 l 1.715123128283251 4.535989575575119" fill="#ff3c05" stroke="none" /></svg>